<?xml version="1.0" encoding="utf-8"?>
<!-- Generator: Adobe Illustrator 25.2.1, SVG Export Plug-In . SVG Version: 6.00 Build 0)  -->
<svg version="1.1" xmlns="http://www.w3.org/2000/svg" xmlns:xlink="http://www.w3.org/1999/xlink" x="0px" y="0px"
	 viewBox="0 0 500 500" style="enable-background:new 0 0 500 500;" xml:space="preserve">
<style type="text/css">
	.st0{fill:#92E3A9;}
	.st1{opacity:0.7;}
	.st2{fill:#FFFFFF;}
	.st3{opacity:0.2;fill:#263238;}
	.st4{opacity:0.2;}
	.st5{fill:#FFFFFF;stroke:#263238;stroke-miterlimit:10;}
	.st6{fill:#263238;stroke:#FFFFFF;stroke-miterlimit:10;}
	.st7{fill:#92E3A9;stroke:#263238;stroke-linecap:round;stroke-linejoin:round;stroke-miterlimit:10;}
	.st8{fill:#263238;}
	.st9{clip-path:url(#XMLID_6_);}
	.st10{opacity:0.5;fill:#FFFFFF;}
	.st11{opacity:0.5;}
	.st12{fill:none;}
	.st13{fill:none;stroke:#263238;stroke-miterlimit:10;}
	.st14{clip-path:url(#XMLID_7_);fill:#92E3A9;}
	.st15{clip-path:url(#XMLID_7_);}
	.st16{opacity:0.5;clip-path:url(#XMLID_7_);fill:#FFFFFF;}
	.st17{opacity:0.5;clip-path:url(#XMLID_7_);}
	.st18{fill:none;stroke:#263238;stroke-linecap:round;stroke-linejoin:round;stroke-miterlimit:10;}
	.st19{fill:#FFFFFF;stroke:#263238;stroke-linecap:round;stroke-linejoin:round;stroke-miterlimit:10;}
	.st20{fill:#757575;stroke:#263238;stroke-linecap:round;stroke-linejoin:round;stroke-miterlimit:10;}
	.st21{fill:#999999;stroke:#263238;stroke-linecap:round;stroke-linejoin:round;stroke-miterlimit:10;}
	.st22{fill:#BFBFBF;stroke:#263238;stroke-linecap:round;stroke-linejoin:round;stroke-miterlimit:10;}
	.st23{opacity:0.1;fill:#FFFFFF;}
	.st24{clip-path:url(#XMLID_8_);}
</style>
<g id="Background_Simple">
	<g>
		<path class="st0" d="M481.72,245.83c0,9.61-1.05,19.18-3.33,28.48c-0.75,3.06-1.65,6.11-2.68,9.11c-0.3,0.86-0.6,1.72-0.92,2.57
			c-0.26,0.7-0.53,1.4-0.8,2.09c-0.08,0.19-0.15,0.38-0.23,0.57c-0.29,0.72-0.58,1.44-0.89,2.15c-0.05,0.11-0.1,0.23-0.15,0.35
			c-0.3,0.7-0.61,1.4-0.92,2.09c-0.14,0.31-0.28,0.61-0.42,0.91c-0.28,0.62-0.57,1.23-0.87,1.84c-0.31,0.65-0.63,1.29-0.95,1.93
			c-0.12,0.23-0.23,0.46-0.35,0.68c-0.28,0.55-0.57,1.1-0.85,1.65c-0.23,0.43-0.46,0.85-0.69,1.27c-1.06,1.96-2.17,3.89-3.33,5.8
			c-0.47,0.78-0.95,1.56-1.44,2.33c-0.11,0.19-0.23,0.38-0.35,0.57c-0.56,0.88-1.13,1.76-1.71,2.64c-0.47,0.71-0.94,1.42-1.43,2.13
			c-0.42,0.62-0.84,1.23-1.27,1.85c-0.09,0.13-0.18,0.26-0.28,0.39c-0.44,0.64-0.9,1.28-1.35,1.92c-0.56,0.79-1.13,1.56-1.7,2.34
			c-0.12,0.16-0.23,0.32-0.35,0.47c-0.65,0.89-1.32,1.77-1.98,2.64c-0.4,0.52-0.8,1.05-1.21,1.56c-0.72,0.95-1.46,1.89-2.21,2.83
			c-0.71,0.9-1.43,1.79-2.16,2.68c-0.08,0.1-0.16,0.19-0.24,0.29c-0.72,0.89-1.44,1.77-2.18,2.65c-0.21,0.27-0.44,0.54-0.66,0.8
			c-0.67,0.81-1.35,1.62-2.03,2.42c-1.96,2.32-3.94,4.62-5.93,6.9c-4.05,4.66-8.19,9.29-12.41,13.89c-3.51,3.8-7.07,7.58-10.7,11.29
			c-17.42,17.89-36.28,34.58-56.79,47.88c-2.55,1.65-5.12,3.26-7.72,4.79c-0.95,0.56-1.9,1.12-2.85,1.67
			c-0.16,0.09-0.33,0.19-0.49,0.28c-0.98,0.56-1.96,1.11-2.95,1.65c-1.01,0.56-2.02,1.11-3.04,1.64c-0.46,0.24-0.92,0.48-1.38,0.72
			c-1.99,1.04-4,2.04-6.03,3c-1.09,0.52-2.18,1.02-3.28,1.51c-1.01,0.46-2.03,0.91-3.05,1.35c-0.42,0.18-0.83,0.36-1.25,0.53
			c-0.93,0.4-1.87,0.78-2.81,1.16c-1.81,0.73-3.64,1.43-5.48,2.09c-0.7,0.26-1.41,0.51-2.12,0.76c-0.4,0.14-0.8,0.27-1.2,0.41
			c-0.66,0.22-1.32,0.44-1.98,0.65c-0.57,0.19-1.15,0.37-1.72,0.55c-0.02,0.01-0.04,0.01-0.06,0.02c-1.13,0.35-2.26,0.69-3.39,1.02
			c-1.79,0.52-3.58,1-5.38,1.46c-1.19,0.3-2.38,0.58-3.58,0.85c-1.13,0.26-2.26,0.5-3.4,0.74c-0.09,0.02-0.18,0.04-0.27,0.05
			c-1.18,0.24-2.37,0.47-3.56,0.68c-0.61,0.11-1.21,0.21-1.82,0.31c-0.61,0.1-1.22,0.2-1.84,0.29c-0.55,0.09-1.11,0.17-1.66,0.24
			c-0.67,0.1-1.35,0.19-2.02,0.28c-7.11,0.91-14.24,1.29-21.37,1.21c-0.43,0-0.85-0.01-1.28-0.02c-6.46-0.12-12.92-0.62-19.35-1.45
			c-0.47-0.06-0.94-0.12-1.41-0.19c-0.81-0.11-1.62-0.22-2.43-0.34c-0.63-0.1-1.26-0.2-1.89-0.3c-2.67-0.42-5.32-0.9-7.97-1.44
			c-0.59-0.11-1.17-0.23-1.75-0.36c-1.78-0.37-3.57-0.77-5.34-1.19c-1.19-0.28-2.37-0.57-3.55-0.87c-0.59-0.15-1.18-0.3-1.77-0.46
			c-0.59-0.15-1.18-0.31-1.77-0.47c-2.35-0.63-4.69-1.31-7.02-2.02c-2.71-0.82-5.4-1.69-8.08-2.61c-0.97-0.33-1.95-0.67-2.92-1.01
			c-3.01-1.07-6.02-2.2-8.99-3.37c-0.53-0.21-1.07-0.43-1.63-0.66c-0.43-0.18-0.86-0.37-1.31-0.57c-0.29-0.13-0.58-0.26-0.88-0.4
			c-1.94-0.88-4.05-1.91-6.32-3.07c-0.38-0.2-0.77-0.4-1.16-0.6c-1.39-0.73-2.84-1.5-4.33-2.32c-3.13-1.72-6.48-3.62-10-5.69
			c-40.01-23.54-101.26-67.72-115.64-84.47c-0.73-0.85-1.44-1.71-2.15-2.58c-0.55-0.68-1.1-1.37-1.63-2.07
			c-0.49-0.63-0.97-1.26-1.44-1.91c-0.42-0.56-0.83-1.13-1.23-1.71c-0.38-0.53-0.76-1.07-1.13-1.61c-0.02-0.04-0.05-0.08-0.08-0.12
			c-0.45-0.67-0.9-1.34-1.34-2.02c-0.42-0.65-0.84-1.3-1.24-1.96c-0.2-0.31-0.39-0.63-0.58-0.95c-0.45-0.74-0.89-1.48-1.32-2.22
			c0-0.01,0-0.01-0.01-0.02c-0.46-0.82-0.92-1.64-1.37-2.47c-0.78-1.45-1.53-2.91-2.23-4.39c-0.18-0.38-0.36-0.77-0.54-1.15
			c-1.42-3.04-2.67-6.14-3.74-9.29c-0.39-1.1-0.74-2.21-1.08-3.32c-0.43-1.43-0.82-2.87-1.18-4.31c-0.07-0.29-0.14-0.57-0.2-0.86
			c-0.18-0.75-0.35-1.51-0.5-2.27c-0.23-1.06-0.42-2.12-0.6-3.19c-0.04-0.26-0.09-0.52-0.12-0.78c-0.09-0.55-0.17-1.1-0.24-1.66
			c-0.09-0.66-0.17-1.33-0.24-1.99c-0.03-0.23-0.05-0.45-0.07-0.67c-0.06-0.57-0.1-1.14-0.15-1.7c0-0.05,0-0.1-0.01-0.14
			c-0.05-0.68-0.09-1.35-0.11-2.02c-0.01-0.07-0.01-0.13-0.01-0.19c-0.03-0.71-0.05-1.42-0.06-2.13c0-0.26,0-0.53,0-0.79
			c0-0.42,0-0.83,0-1.25c0.01-1.04,0.04-2.09,0.11-3.13c0.04-0.68,0.09-1.36,0.15-2.03c0.12-1.34,0.28-2.68,0.48-4.01
			c0.1-0.68,0.21-1.36,0.34-2.03c0.24-1.35,0.53-2.7,0.87-4.05c0.9-3.55,2.05-6.97,3.45-10.25c1.06-2.53,2.26-4.96,3.59-7.34
			c0.1-0.2,0.22-0.41,0.34-0.61c5.39-9.49,12.72-17.91,20.98-25.71c0.88-0.84,1.77-1.66,2.68-2.47c0.95-0.87,1.91-1.72,2.88-2.58
			c0.06-0.05,0.12-0.11,0.18-0.16c1.55-1.36,3.12-2.7,4.71-4.03c2.45-2.05,4.94-4.06,7.45-6.06c0.08-0.07,0.17-0.13,0.25-0.2
			c2.15-1.7,4.32-3.39,6.48-5.07c3.4-2.63,6.81-5.25,10.15-7.86c0.89-0.69,1.77-1.38,2.64-2.07c0.97-0.76,1.92-1.52,2.87-2.28
			c8.96-7.18,16.68-14.82,23.86-22.64c1.39-1.52,2.77-3.05,4.14-4.59c0.65-0.74,1.3-1.47,1.94-2.21
			c9.13-10.4,17.62-20.92,27.07-30.85c2.25-2.37,4.55-4.7,6.92-6.99c2-1.91,4.03-3.79,6.14-5.63c2.41-2.12,4.89-4.19,7.49-6.19
			c3.55-2.76,7.29-5.41,11.29-7.94c0.98-0.63,1.95-1.24,2.93-1.84c99.71-61.97,173.1-41.74,222.06,0c3.69,3.13,7.25,6.4,10.66,9.78
			c2.08,2.01,4.09,4.09,6.04,6.19c0.22,0.22,0.42,0.45,0.63,0.69c1.37,1.46,2.7,2.93,4,4.41c0.39,0.44,0.77,0.88,1.15,1.32
			c0.57,0.66,1.14,1.32,1.7,1.99c0.69,0.81,1.37,1.63,2.05,2.45c0.43,0.52,0.85,1.04,1.27,1.56c2.73,3.36,5.33,6.77,7.81,10.2
			c0.5,0.68,0.99,1.37,1.48,2.06c3.42,4.8,6.6,9.65,9.55,14.47c0.42,0.69,0.84,1.38,1.25,2.06c0.42,0.69,0.83,1.38,1.23,2.07
			c0.4,0.68,0.8,1.37,1.19,2.05c0.4,0.69,0.79,1.37,1.17,2.05c0.38,0.68,0.76,1.37,1.14,2.05c0.39,0.68,0.76,1.36,1.11,2.03
			c0.37,0.68,0.73,1.36,1.09,2.03c0.36,0.67,0.71,1.35,1.06,2.02c0.34,0.67,0.69,1.34,1.03,2c0.34,0.67,0.67,1.34,1,2
			c1.31,2.64,2.55,5.25,3.73,7.82c0.58,1.3,1.16,2.59,1.71,3.86c2.49,5.72,4.62,11.19,6.36,16.28c0.01,0.02,0.02,0.05,0.02,0.07
			c0.17,0.49,0.33,0.97,0.49,1.45c0.17,0.5,0.33,0.99,0.49,1.48c0.12,0.38,0.25,0.75,0.36,1.13c0.18,0.56,0.36,1.12,0.53,1.69
			c0.19,0.61,0.37,1.22,0.54,1.83c0.33,1.12,0.65,2.24,0.95,3.37c0.26,0.95,0.51,1.9,0.75,2.86c0.05,0.18,0.1,0.35,0.14,0.53
			c0.04,0.15,0.07,0.3,0.11,0.45c0.14,0.56,0.28,1.12,0.41,1.69c0.36,1.49,0.69,2.99,1,4.49c0.17,0.82,0.34,1.63,0.49,2.45
			c0.03,0.15,0.06,0.3,0.09,0.46c0.15,0.77,0.29,1.54,0.42,2.31c0.18,1.03,0.35,2.07,0.5,3.1c0.13,0.78,0.24,1.57,0.35,2.36
			c0.01,0.11,0.03,0.23,0.05,0.35c0.07,0.52,0.14,1.05,0.2,1.58c0.06,0.44,0.11,0.88,0.16,1.31c0.18,1.59,0.34,3.17,0.47,4.76
			c0.03,0.36,0.06,0.72,0.09,1.08c0.04,0.6,0.08,1.21,0.12,1.81c0.04,0.67,0.08,1.34,0.11,2.02c0.03,0.52,0.05,1.03,0.07,1.55
			c0.03,0.76,0.05,1.53,0.06,2.29C481.71,244.05,481.72,244.94,481.72,245.83z"/>
		<g class="st1">
			<path class="st2" d="M481.72,245.83c0,9.61-1.05,19.18-3.33,28.48c-0.75,3.06-1.65,6.11-2.68,9.11c-0.3,0.86-0.6,1.72-0.92,2.57
				c-0.26,0.7-0.53,1.4-0.8,2.09c-0.08,0.19-0.15,0.38-0.23,0.57c-0.29,0.72-0.58,1.44-0.89,2.15c-0.05,0.11-0.1,0.23-0.15,0.35
				c-0.3,0.7-0.61,1.4-0.92,2.09c-0.14,0.31-0.28,0.61-0.42,0.91c-0.28,0.62-0.57,1.23-0.87,1.84c-0.31,0.65-0.63,1.29-0.95,1.93
				c-0.12,0.23-0.23,0.46-0.35,0.68c-0.28,0.55-0.57,1.1-0.85,1.65c-0.23,0.43-0.46,0.85-0.69,1.27c-1.06,1.96-2.17,3.89-3.33,5.8
				c-0.47,0.78-0.95,1.56-1.44,2.33c-0.11,0.19-0.23,0.38-0.35,0.57c-0.56,0.88-1.13,1.76-1.71,2.64c-0.47,0.71-0.94,1.42-1.43,2.13
				c-0.42,0.62-0.84,1.23-1.27,1.85c-0.09,0.13-0.18,0.26-0.28,0.39c-0.44,0.64-0.9,1.28-1.35,1.92c-0.56,0.79-1.13,1.56-1.7,2.34
				c-0.12,0.16-0.23,0.32-0.35,0.47c-0.65,0.89-1.32,1.77-1.98,2.64c-0.4,0.52-0.8,1.05-1.21,1.56c-0.72,0.95-1.46,1.89-2.21,2.83
				c-0.71,0.9-1.43,1.79-2.16,2.68c-0.08,0.1-0.16,0.19-0.24,0.29c-0.72,0.89-1.44,1.77-2.18,2.65c-0.21,0.27-0.44,0.54-0.66,0.8
				c-0.67,0.81-1.35,1.62-2.03,2.42c-1.96,2.32-3.94,4.62-5.93,6.9c-4.05,4.66-8.19,9.29-12.41,13.89
				c-3.51,3.8-7.07,7.58-10.7,11.29c-17.42,17.89-36.28,34.58-56.79,47.88c-2.55,1.65-5.12,3.26-7.72,4.79
				c-0.95,0.56-1.9,1.12-2.85,1.67c-0.16,0.09-0.33,0.19-0.49,0.28c-0.98,0.56-1.96,1.11-2.95,1.65c-1.01,0.56-2.02,1.11-3.04,1.64
				c-0.46,0.24-0.92,0.48-1.38,0.72c-1.99,1.04-4,2.04-6.03,3c-1.09,0.52-2.18,1.02-3.28,1.51c-1.01,0.46-2.03,0.91-3.05,1.35
				c-0.42,0.18-0.83,0.36-1.25,0.53c-0.93,0.4-1.87,0.78-2.81,1.16c-1.81,0.73-3.64,1.43-5.48,2.09c-0.7,0.26-1.41,0.51-2.12,0.76
				c-0.4,0.14-0.8,0.27-1.2,0.41c-0.66,0.22-1.32,0.44-1.98,0.65c-0.57,0.19-1.15,0.37-1.72,0.55c-0.02,0.01-0.04,0.01-0.06,0.02
				c-1.13,0.35-2.26,0.69-3.39,1.02c-1.79,0.52-3.58,1-5.38,1.46c-1.19,0.3-2.38,0.58-3.58,0.85c-1.13,0.26-2.26,0.5-3.4,0.74
				c-0.09,0.02-0.18,0.04-0.27,0.05c-1.18,0.24-2.37,0.47-3.56,0.68c-0.61,0.11-1.21,0.21-1.82,0.31c-0.61,0.1-1.22,0.2-1.84,0.29
				c-0.55,0.09-1.11,0.17-1.66,0.24c-0.67,0.1-1.35,0.19-2.02,0.28c-7.11,0.91-14.24,1.29-21.37,1.21c-0.43,0-0.85-0.01-1.28-0.02
				c-6.46-0.12-12.92-0.62-19.35-1.45c-0.47-0.06-0.94-0.12-1.41-0.19c-0.81-0.11-1.62-0.22-2.43-0.34c-0.63-0.1-1.26-0.2-1.89-0.3
				c-2.67-0.42-5.32-0.9-7.97-1.44c-0.59-0.11-1.17-0.23-1.75-0.36c-1.78-0.37-3.57-0.77-5.34-1.19c-1.19-0.28-2.37-0.57-3.55-0.87
				c-0.59-0.15-1.18-0.3-1.77-0.46c-0.59-0.15-1.18-0.31-1.77-0.47c-2.35-0.63-4.69-1.31-7.02-2.02c-2.71-0.82-5.4-1.69-8.08-2.61
				c-0.97-0.33-1.95-0.67-2.92-1.01c-3.01-1.07-6.02-2.2-8.99-3.37c-0.53-0.21-1.07-0.43-1.63-0.66c-0.43-0.18-0.86-0.37-1.31-0.57
				c-0.29-0.13-0.58-0.26-0.88-0.4c-1.94-0.88-4.05-1.91-6.32-3.07c-0.38-0.2-0.77-0.4-1.16-0.6c-1.39-0.73-2.84-1.5-4.33-2.32
				c-3.13-1.72-6.48-3.62-10-5.69c-40.01-23.54-101.26-67.72-115.64-84.47c-0.73-0.85-1.44-1.71-2.15-2.58
				c-0.55-0.68-1.1-1.37-1.63-2.07c-0.49-0.63-0.97-1.26-1.44-1.91c-0.42-0.56-0.83-1.13-1.23-1.71c-0.38-0.53-0.76-1.07-1.13-1.61
				c-0.02-0.04-0.05-0.08-0.08-0.12c-0.45-0.67-0.9-1.34-1.34-2.02c-0.42-0.65-0.84-1.3-1.24-1.96c-0.2-0.31-0.39-0.63-0.58-0.95
				c-0.45-0.74-0.89-1.48-1.32-2.22c0-0.01,0-0.01-0.01-0.02c-0.46-0.82-0.92-1.64-1.37-2.47c-0.78-1.45-1.53-2.91-2.23-4.39
				c-0.18-0.38-0.36-0.77-0.54-1.15c-1.42-3.04-2.67-6.14-3.74-9.29c-0.39-1.1-0.74-2.21-1.08-3.32c-0.43-1.43-0.82-2.87-1.18-4.31
				c-0.07-0.29-0.14-0.57-0.2-0.86c-0.18-0.75-0.35-1.51-0.5-2.27c-0.23-1.06-0.43-2.12-0.6-3.19c-0.04-0.26-0.09-0.52-0.12-0.78
				c-0.09-0.55-0.17-1.1-0.24-1.66c-0.09-0.66-0.17-1.33-0.24-1.99c-0.03-0.23-0.05-0.45-0.07-0.67c-0.06-0.57-0.1-1.14-0.15-1.7
				c0-0.05,0-0.1-0.01-0.14c-0.05-0.68-0.09-1.35-0.11-2.02c-0.01-0.07-0.01-0.13-0.01-0.19c-0.03-0.71-0.05-1.42-0.06-2.13
				c-0.03-1.73,0.01-3.45,0.11-5.17c0.04-0.68,0.09-1.36,0.15-2.03c0.12-1.34,0.28-2.68,0.48-4.01c0.1-0.68,0.21-1.36,0.34-2.03
				c0.24-1.35,0.53-2.7,0.87-4.05c0.9-3.55,2.05-6.97,3.45-10.25c1.06-2.53,2.26-4.96,3.59-7.34c0.1-0.2,0.22-0.41,0.34-0.61
				c5.39-9.49,12.72-17.91,20.98-25.71c0.47-0.45,0.94-0.89,1.42-1.33c0.42-0.38,0.84-0.76,1.26-1.14c0.95-0.87,1.91-1.72,2.88-2.58
				c0.06-0.05,0.12-0.11,0.18-0.16c1.55-1.36,3.12-2.7,4.71-4.03c2.45-2.05,4.94-4.06,7.45-6.06c0.08-0.07,0.17-0.13,0.25-0.2
				c2.15-1.7,4.32-3.39,6.48-5.07c1.09-0.84,2.17-1.68,3.26-2.52c2.31-1.78,4.62-3.56,6.89-5.34c0.89-0.69,1.77-1.38,2.64-2.07
				c0.97-0.76,1.92-1.52,2.87-2.28c8.96-7.18,16.68-14.82,23.86-22.64c1.39-1.52,2.77-3.05,4.14-4.59c0.65-0.74,1.3-1.47,1.94-2.21
				c9.13-10.4,17.62-20.92,27.07-30.85c2.25-2.37,4.55-4.7,6.92-6.99c2-1.91,4.03-3.79,6.14-5.63c2.41-2.12,4.89-4.19,7.49-6.19
				c3.55-2.76,7.29-5.41,11.29-7.94c0.98-0.63,1.95-1.24,2.93-1.84c99.71-61.97,173.1-41.74,222.06,0c3.69,3.13,7.25,6.4,10.66,9.78
				c2.08,2.01,4.09,4.09,6.04,6.19c0.22,0.22,0.42,0.45,0.63,0.69c1.37,1.46,2.7,2.93,4,4.41c0.39,0.44,0.77,0.88,1.15,1.32
				c0.57,0.66,1.14,1.32,1.7,1.99c0.69,0.81,1.37,1.63,2.05,2.45c0.43,0.52,0.85,1.04,1.27,1.56c2.73,3.36,5.33,6.77,7.81,10.2
				c0.5,0.68,0.99,1.37,1.48,2.06c3.42,4.8,6.6,9.65,9.55,14.47c0.42,0.69,0.84,1.38,1.25,2.06c0.42,0.69,0.83,1.38,1.23,2.07
				c0.4,0.68,0.8,1.37,1.19,2.05c0.4,0.69,0.79,1.37,1.17,2.05c0.38,0.68,0.76,1.37,1.14,2.05c0.39,0.68,0.76,1.36,1.11,2.03
				c0.37,0.68,0.73,1.36,1.09,2.03c0.36,0.67,0.71,1.35,1.06,2.02c0.34,0.67,0.69,1.34,1.03,2c0.34,0.67,0.67,1.34,1,2
				c1.32,2.64,2.56,5.25,3.73,7.82c0.58,1.3,1.16,2.59,1.71,3.86c2.49,5.72,4.62,11.19,6.36,16.28c0.01,0.02,0.02,0.05,0.02,0.07
				c0.17,0.49,0.33,0.97,0.49,1.45c0.17,0.5,0.33,0.99,0.49,1.48c0.12,0.38,0.25,0.75,0.36,1.13c0.18,0.56,0.36,1.12,0.53,1.69
				c0.19,0.61,0.37,1.22,0.54,1.83c0.33,1.12,0.65,2.24,0.95,3.37c0.26,0.95,0.51,1.9,0.75,2.86c0.05,0.18,0.1,0.35,0.14,0.53
				c0.04,0.15,0.07,0.3,0.11,0.45c0.14,0.56,0.28,1.12,0.41,1.69c0.36,1.49,0.69,2.99,1,4.49c0.17,0.82,0.34,1.63,0.49,2.45
				c0.03,0.15,0.06,0.3,0.09,0.46c0.15,0.77,0.29,1.54,0.42,2.31c0.18,1.03,0.35,2.07,0.5,3.1c0.13,0.78,0.24,1.57,0.35,2.36
				c0.01,0.11,0.03,0.23,0.05,0.35c0.07,0.52,0.14,1.05,0.2,1.58c0.06,0.44,0.11,0.88,0.16,1.31c0.18,1.59,0.34,3.17,0.47,4.76
				c0.03,0.36,0.06,0.72,0.09,1.08c0.04,0.6,0.08,1.21,0.12,1.81c0.04,0.67,0.08,1.34,0.11,2.02c0.03,0.52,0.05,1.03,0.07,1.55
				c0.03,0.76,0.05,1.53,0.06,2.29C481.71,244.05,481.72,244.94,481.72,245.83z"/>
		</g>
	</g>
</g>
<g id="Plants">
	<path class="st3" d="M32.14,262.26C31.94,262.13,31.99,262.04,32.14,262.26L32.14,262.26z"/>
	<g>
		<path class="st4" d="M125.67,253.44c-1.02,6.8-6.04,12.33-12.57,14.47l-2.48,0.81c-8.92,12.63-24.56,18.02-37.89,10.19l-3.9-2.29
			l-10.92-12.98c-0.04,0.01-0.09,0.02-0.13,0.03c-3.46,0.72-7.37,0.19-9.93-2.25c-0.41,2.14-3.2,3.4-5.07,2.3
			c-1.87-1.1-2.11-4.16-0.44-5.55c-2.2,1.94-5.6,1.05-7.72-1.07c-0.09-5.79,0.52-11.58,1.95-17.29c0.9-3.55,2.05-6.97,3.45-10.25
			c1.06-2.53,2.26-4.96,3.59-7.34c0.1-0.2,0.22-0.41,0.34-0.61c1.97-3.48,4.2-6.81,6.65-10.02c0.42-0.38,0.84-0.76,1.26-1.14
			c0.95-0.87,1.91-1.72,2.88-2.58c0.06-0.05,0.12-0.11,0.18-0.16c1.55-1.36,3.12-2.7,4.71-4.03c2.45-2.05,4.94-4.06,7.45-6.06
			c0.08-0.07,0.17-0.13,0.25-0.2c2.15-1.7,4.32-3.39,6.48-5.07c1.09-0.84,2.17-1.68,3.26-2.52c0.66,0.08,1.3,0.23,1.92,0.45
			c2.67,0.93,3.13,3.38,4.98,5.06c2.46,2.25,4.82-1.53,8.61-1.41c11.65,0.36,7.13,12.31,12.82,10.81
			c24.57-6.48,20.44,24.95,9.76,31.85C121.46,241.81,126.89,245.26,125.67,253.44z"/>
		<g>
			<ellipse class="st5" cx="72.84" cy="242.39" rx="41.44" ry="40.93"/>
			<ellipse class="st6" cx="72.84" cy="240.73" rx="37.78" ry="37.32"/>
		</g>
		<g>
			<g>
				<g>
					<g>
						<g>
							<g>
								<path class="st0" d="M32.24,255.44c-2.38,1.48-3.06,6.45-1.18,8.61c1.88,2.14,5.46,0.49,6.19-2.87
									c0.35,0.94,1.45,1.09,2.02,0.28c0.4-0.58,0.42-1.48,0.14-2.1c-0.18-0.15-0.11-0.26,0,0c1.22,0.97,3.32-0.09,3.61-2.15
									c-0.89,5.5,4.11,10.3,7.79,7.5c-1.09,2.34,0.34,5.41,2.24,6c1.9,0.59,3.94-0.53,5.76-1.78c1.82-1.25,3.68-2.67,5.67-2.76
									c1.74-0.08,3.34,0.9,4.99,1.48c5.26,1.83,11.42-0.6,15.44-6.11c2.66,4.55,9.21,2.88,10.97-2.79
									c0.37,2.65,2.18,4.67,4.21,4.7c2.02,0.03,4.07-1.94,4.76-4.58l0,0.03c0.04,2.51,2.28,3.74,3.88,2.12
									c2.04-2.06,3.31-5.84,2.31-8.87c2.73-0.11,5.36-3.27,5.78-6.93c0.42-3.66-1.43-7.33-4.06-8.05
									c4.51-1.87,8.05-8.02,8.22-14.29c0.16-6.26-3.06-12.09-7.49-13.55c-1.69-0.56-3.66-0.45-5.09,1.06
									c-0.53-3.57-2.15-6.76-4.53-8.36c-3.8-2.57-9.09-0.81-11.92,3.97c1.38-2.47,1.47-6.04,0.22-8.38
									c-1.26-2.33-3.75-3.27-5.87-2.16c-0.46-3.83-3.41-6.55-6.3-5.81c-2.88,0.74-5.22,4.84-4.97,8.71
									c-0.27-3.12-3.95-3.89-5.28-1.27c0.11,0.24-0.06,0.1,0,0c-1.84-3.86-5.58-5.84-9.05-4.71c-3.69,1.21-6.79,5.85-7.26,10.9
									c-2.55-2.32-6.26-2.22-8.99,0.25c-2.73,2.46-4.31,7.14-3.83,11.33c-2.87-2.83-7.7-1.29-9.67,3.09
									c-1.97,4.38-0.61,10.59,2.71,12.42c-2.29,0.35-4.31,3.39-4.31,6.47c0.01,3.09,2.03,5.72,4.33,5.64
									c-2.32,0.2-4.5,2.94-4.84,6.05C28.46,251.64,30.01,254.76,32.24,255.44z"/>
							</g>
						</g>
						<g class="st4">
							<g>
								<path class="st2" d="M70.33,241.1c-1.16-0.97-2.64-1.44-4.05-1c-1.41,0.44-2.71,1.91-3.03,3.72
									c-0.32,1.81,0.51,3.81,1.9,4.15c1.69,0.42,3.42-1.47,5.14-1.26c0.61,0.07,1.17,0.41,1.77,0.58
									c2.47,0.69,4.96-1.52,7.06-3.61c0.74-0.73,1.49-1.49,1.99-2.49c0.5-1,0.71-2.32,0.27-3.29c-0.61-1.35-2.11-1.46-3.36-1.2
									c-2.52,0.52-4.96,1.96-6.97,4.1c0.07-0.5,0.15-1.01,0.22-1.52L70.33,241.1z"/>
							</g>
							<g>
								<path class="st2" d="M106.45,236.17c-0.66-0.56-1.35-1.13-2.14-1.32c-0.8-0.19-1.74,0.08-2.26,0.94
									c-0.71,1.17-0.31,2.92,0.56,3.76c0.86,0.84,2.03,1.02,3.14,1.17c1.14,0.16,2.58,0.12,3.17-1.2
									c0.43-0.96,0.12-2.18-0.48-2.88c-0.6-0.7-1.43-1-2.22-1.28L106.45,236.17z"/>
							</g>
							<g>
								<path class="st2" d="M49.91,215.74c-2.32,1.36-4.14,4.18-4.74,7.32c-0.18,0.95-0.18,2.12,0.46,2.58
									c0.45,0.32,1.03,0.14,1.56-0.05c2.21-0.8,4.43-1.6,6.64-2.4c-1.06,0.58-2.15,1.18-3.01,2.2c-0.86,1.01-1.45,2.54-1.2,3.92
									c0.29,1.62,1.68,2.54,3.01,2.44c1.33-0.11,2.58-1.02,3.67-2.07c1.17-1.12,2.32-2.65,2.37-4.45c0.06-1.81-1.7-3.37-2.8-2.15
									c2.53-1.03,4.96-2.57,7.16-4.55c0.8-0.72,1.58-1.52,2.1-2.57c0.51-1.06,0.71-2.42,0.27-3.45c-2.16-5.09-5.15,2.75-6.56,3.52
									C56.18,217.48,53.28,213.76,49.91,215.74z"/>
								<path class="st2" d="M39.23,238.69c-0.25,1.04-0.11,2.26,0.53,2.88c0.64,0.62,1.8,0.33,2.12-0.68
									c-1.48,0.68-3.07,1.45-4.02,3.09c-0.95,1.64-0.77,4.39,0.69,4.91c0.91,0.33,1.9-0.31,2.75-0.95
									c2.42-1.81,4.74-3.87,6.93-6.15c-0.69,1.97,0.85,4.06,2.49,4.14c1.64,0.08,3.19-1.15,4.62-2.32
									c1.75-1.44,3.77-3.61,3.36-6.09c-0.36-2.16-2.53-3-4.23-2.25c-1.7,0.74-3,2.56-4.21,4.29c0.96-1.78-0.31-4.25-1.93-4.43
									c-1.57-0.18-3.17,1.14-4.17,2.68c1.86-1.4,2.33-4.77-0.12-5.01C42.44,232.65,39.65,236.96,39.23,238.69z"/>
								<path class="st2" d="M89.77,228.09c-1.37-0.58-3.13,0.68-3.54,2.53c-0.41,1.85,0.63,3.87,2.09,4.07
									c-1.08,0.18-2.12,0.93-2.83,2.03c-0.4,0.61-0.7,1.38-0.63,2.14c0.11,1.13,1.04,1.81,1.94,1.8c0.9-0.01,1.76-0.55,2.59-1.08
									c-0.89,0.16-1.83,0.35-2.55,1.09c-0.72,0.74-1.05,2.23-0.43,2.99c0.52,0.64,1.39,0.47,2.11,0.17
									c1.62-0.67,3.14-1.84,4.38-3.37c0.89,1.24,2.23,2.09,3.59,1.72c1.35-0.36,2.53-2.27,2.14-3.9c-0.28-1.16-1.24-1.85-2.2-1.94
									c-0.97-0.09-1.94,0.31-2.88,0.75c0.96-0.92,1.99-1.94,2.36-3.38c0.37-1.44-0.34-3.29-1.51-3.11
									c-1.31,0.21-2.02,2.52-3.06,3.4C90.09,232.55,92.53,229.24,89.77,228.09z"/>
								<g>
									<path class="st2" d="M66.36,222.6c-1.51,1.37-2.07,3.93-2.01,6.21c0.07,2.51,0.92,5.15,2.71,6.05
										c2.36,1.18,5.39-1.53,5.89-4.83c0.5-3.3-1.13-6.53-3.41-7.92C69.55,222.12,67.87,221.23,66.36,222.6z"/>
								</g>
								<g>
									<path class="st2" d="M83.08,218.86c0.2,0.21,0.4,0.43,0.6,0.64c-0.98-1.57-3.12-1.66-4.34-0.17
										c-1.23,1.48-1.28,4.22-0.12,5.57c1.17,1.35,3.31,1.02,4.36-0.67c1.7,0.91,3.98,0.38,5.23-1.56
										c1.25-1.94,1.03-5.17-0.6-6.27c-1.63-1.09-4.18,0.85-4.04,3.25c-0.23-0.32-0.47-0.65-0.7-0.97L83.08,218.86z"/>
								</g>
								<g>
									<path class="st2" d="M101.41,221.52c-1.21,1.55-2.46,3.21-2.93,5.27c-0.47,2.06,0.2,4.61,1.79,5.04
										c1.58,0.42,3.13-1.35,4.07-3.15c0.85-1.63,1.51-3.63,1.07-5.4c-0.44-1.77-2.45-2.71-3.49-1.26L101.41,221.52z"/>
								</g>
								<path class="st2" d="M75.12,210.83c-0.57-1.67-2.46-2.15-3.73-1.09c-1.27,1.07-1.77,3.32-1.25,5.03
									c0.51,1.71,1.89,2.8,3.35,2.91c1.8,0.14,3.98-1.85,3.61-4.09c0.76,1.26,2.15,1.7,3.43,1.46c1.29-0.24,2.49-1.06,3.63-1.94
									c1.54-1.21,3.19-3.03,3.07-5.24c-0.1-1.76-1.41-3.05-2.8-3.13c-1.39-0.08-2.77,0.83-3.85,2.05
									c-0.85,0.96-1.56,2.12-2.48,2.97c-0.92,0.85-2.15,1.35-3.1,0.75L75.12,210.83z"/>
							</g>
						</g>
					</g>
				</g>
			</g>
		</g>
	</g>
</g>
<g id="Keyboard">
	<g>
		<g>
			<rect x="145.68" y="272.76" class="st7" width="230.67" height="97.15"/>
			<g>
				<rect x="150.5" y="278.64" class="st5" width="21.7" height="12.01"/>
				<rect x="336.83" y="337.2" class="st5" width="34.18" height="12.01"/>
				<rect x="349.91" y="293.64" class="st5" width="21.1" height="12.01"/>
				<rect x="150.5" y="322.39" class="st5" width="21.7" height="12.01"/>
				<rect x="150.5" y="307.92" class="st5" width="17.57" height="12.01"/>
				<g>
					<rect x="150.5" y="293.28" class="st5" width="12.01" height="12.01"/>
					<rect x="165.84" y="293.28" class="st5" width="12.01" height="12.01"/>
					<rect x="181.17" y="293.28" class="st5" width="12.01" height="12.01"/>
					<rect x="196.5" y="293.28" class="st5" width="12.01" height="12.01"/>
					<rect x="211.84" y="293.28" class="st5" width="12.01" height="12.01"/>
					<rect x="227.17" y="293.28" class="st5" width="12.01" height="12.01"/>
					<rect x="242.5" y="293.28" class="st5" width="12.01" height="12.01"/>
					<rect x="257.84" y="293.28" class="st5" width="12.01" height="12.01"/>
					<rect x="273.17" y="293.28" class="st5" width="12.01" height="12.01"/>
					<rect x="288.5" y="293.28" class="st5" width="12.01" height="12.01"/>
					<rect x="303.84" y="293.28" class="st5" width="12.01" height="12.01"/>
					<rect x="319.17" y="293.28" class="st5" width="12.01" height="12.01"/>
					<rect x="334.51" y="293.28" class="st5" width="12.01" height="12.01"/>
				</g>
				<g>
					<rect x="150.5" y="352.02" class="st5" width="12.01" height="12.01"/>
					<rect x="165.84" y="352.02" class="st5" width="12.01" height="12.01"/>
					<rect x="181.17" y="352.02" class="st5" width="12.01" height="12.01"/>
					<rect x="196.5" y="352.02" class="st5" width="14.66" height="12.01"/>
					<rect x="214.48" y="352.02" class="st5" width="73.35" height="12.01"/>
					<rect x="312.49" y="352.02" class="st5" width="12.01" height="12.01"/>
					<rect x="327.82" y="352.02" class="st5" width="12.01" height="12.01"/>
					<rect x="343.18" y="352.02" class="st5" width="12.01" height="12.01"/>
					<rect x="290.83" y="352.02" class="st5" width="18.65" height="12.01"/>
					<rect x="359" y="352.02" class="st5" width="12.01" height="12.01"/>
				</g>
				<g>
					<rect x="171.48" y="307.92" class="st5" width="12.01" height="12.01"/>
					<rect x="186.81" y="307.92" class="st5" width="12.01" height="12.01"/>
					<rect x="202.15" y="307.92" class="st5" width="12.01" height="12.01"/>
					<rect x="217.48" y="307.92" class="st5" width="12.01" height="12.01"/>
					<rect x="232.82" y="307.92" class="st5" width="12.01" height="12.01"/>
					<rect x="248.15" y="307.92" class="st5" width="12.01" height="12.01"/>
					<rect x="263.48" y="307.92" class="st5" width="12.01" height="12.01"/>
					<rect x="278.82" y="307.92" class="st5" width="12.01" height="12.01"/>
					<rect x="294.15" y="307.92" class="st5" width="12.01" height="12.01"/>
					<rect x="309.48" y="307.92" class="st5" width="12.01" height="12.01"/>
					<rect x="324.82" y="307.92" class="st5" width="12.01" height="12.01"/>
					<rect x="340.15" y="307.92" class="st5" width="12.01" height="12.01"/>
					<polygon class="st5" points="371.01,307.92 371.01,334.58 359,334.58 359,319.93 355.48,319.93 355.48,307.92 					"/>
				</g>
				<g>
					<rect x="175" y="322.56" class="st5" width="12.01" height="12.01"/>
					<rect x="190.33" y="322.56" class="st5" width="12.01" height="12.01"/>
					<rect x="205.66" y="322.56" class="st5" width="12.01" height="12.01"/>
					<rect x="221" y="322.56" class="st5" width="12.01" height="12.01"/>
					<rect x="236.33" y="322.56" class="st5" width="12.01" height="12.01"/>
					<rect x="251.67" y="322.56" class="st5" width="12.01" height="12.01"/>
					<rect x="267" y="322.56" class="st5" width="12.01" height="12.01"/>
					<rect x="282.33" y="322.56" class="st5" width="12.01" height="12.01"/>
					<rect x="297.67" y="322.56" class="st5" width="12.01" height="12.01"/>
					<rect x="313" y="322.56" class="st5" width="12.01" height="12.01"/>
					<rect x="328.33" y="322.56" class="st5" width="12.01" height="12.01"/>
					<rect x="343.67" y="322.56" class="st5" width="12.01" height="12.01"/>
				</g>
				<g>
					<rect x="168.48" y="337.2" class="st5" width="12.01" height="12.01"/>
					<rect x="183.81" y="337.2" class="st5" width="12.01" height="12.01"/>
					<rect x="199.15" y="337.2" class="st5" width="12.01" height="12.01"/>
					<rect x="214.48" y="337.2" class="st5" width="12.01" height="12.01"/>
					<rect x="229.81" y="337.2" class="st5" width="12.01" height="12.01"/>
					<rect x="245.15" y="337.2" class="st5" width="12.01" height="12.01"/>
					<rect x="260.48" y="337.2" class="st5" width="12.01" height="12.01"/>
					<rect x="275.82" y="337.2" class="st5" width="12.01" height="12.01"/>
					<rect x="291.15" y="337.2" class="st5" width="12.01" height="12.01"/>
					<rect x="306.48" y="337.2" class="st5" width="12.01" height="12.01"/>
					<rect x="321.82" y="337.2" class="st5" width="12.01" height="12.01"/>
				</g>
				<g>
					<rect x="175" y="279.36" class="st5" width="12.01" height="12.01"/>
					<rect x="190.33" y="279.36" class="st5" width="12.01" height="12.01"/>
					<rect x="205.66" y="279.36" class="st5" width="12.01" height="12.01"/>
					<rect x="221" y="279.36" class="st5" width="12.01" height="12.01"/>
					<rect x="236.33" y="279.36" class="st5" width="12.01" height="12.01"/>
					<rect x="251.67" y="279.36" class="st5" width="12.01" height="12.01"/>
					<rect x="267" y="279.36" class="st5" width="12.01" height="12.01"/>
					<rect x="282.33" y="279.36" class="st5" width="12.01" height="12.01"/>
					<rect x="297.67" y="279.36" class="st5" width="12.01" height="12.01"/>
					<rect x="313" y="279.36" class="st5" width="12.01" height="12.01"/>
					<rect x="328.33" y="279.36" class="st5" width="12.01" height="12.01"/>
					<rect x="343.67" y="279.36" class="st5" width="12.01" height="12.01"/>
					<rect x="359" y="279.36" class="st5" width="12.01" height="12.01"/>
				</g>
				<rect x="150.5" y="337.2" class="st5" width="14.55" height="12.01"/>
			</g>
		</g>
		<polygon class="st8" points="145.68,273.38 150.5,271.78 373.22,271.78 376.39,273.36 		"/>
	</g>
</g>
<g id="Hands">
	<g>
		<path class="st4" d="M310.33,440l-4.69-28.25c-1.03-4.21-3.24-8.04-6.35-11.06c-9.33-9-21.66-18.24-22.19-30.04
			c-0.81-18.03-3.62-17.49-3.32-21.94c0.01-0.16,1.4-2.15,3.21-6.6c0.58-1.44,0.97-3.58,1.36-5.34c0.4-1.85,2.16-3.11,4.04-2.85
			c1.26,0.17,2.5,0.74,3.39,1.59c1.71,1.66,2.47,4.11,2.54,6.5c0.07,2.38-0.46,4.74-1,7.06c1.68,3.76,2.47,8.33,3.01,12.41
			c1.07-3.3,1.88-6.63,2.95-9.92c0.22-0.12,0.14-0.38,0.35-0.5c-1.51-3.24-0.23-3.06-3.22-10.19c-5.03-12-10.64-23.57-14.65-38.65
			c-0.32-1.17-0.3-3.09,0.09-4.24c1.45-4.31,5.89-3.32,7.83-0.81c0.52,0.66,0.9,1.4,1.2,2.18c2.05,5.37,6.42,13.65,9.57,18.45
			l10.89,16.6c0,0,3.79-3.11,4.37-4.5l0.01-0.01c0.57-1.4,0.85-12.67,0.85-12.67s-0.86,2.11-2.77,1.99c-1.38-0.1-4.18,0.7-6.17-1.54
			c-1.63-1.83-1.63-4.58-0.18-6.54l4.93-6.66c0,0,3.31-2.9,7.74-0.93c4.42,1.98,8.71,6.1,8.71,6.1s4.1-0.21,7.58,1.46
			c3.49,1.68,7.15,6.5,7.15,6.5s4.07,0.25,5.9,1.58c0.46,0.33,6.67,10,4.43,17.53c-1.33,4.49-2.15,11.01-2.75,12.76l-3.05,44.09
			l6.15,29.02l-13.15,7.33c-4.84,2.7-9.9,4.96-15.13,6.77L310.33,440z"/>
		<g>
			<g>
				<g>
					<g>
						<g>
							<defs>
								<path id="XMLID_2_" d="M347.67,388.48l0.12-44.2c0.48-1.79,0.87-8.35,1.89-12.92c1.73-7.66-5.1-16.9-5.59-17.2
									c-1.92-1.2-5.99-1.18-5.99-1.18s-3.97-4.57-7.57-6.01c-3.58-1.43-7.66-0.95-7.66-0.95s-4.55-3.83-9.1-5.51
									c-4.55-1.67-7.66,1.44-7.66,1.44l-4.47,6.97c-1.32,2.05-1.13,4.8,0.61,6.52c2.14,2.11,4.88,1.12,6.26,1.12
									c1.92,0,2.63-2.16,2.63-2.16s0.47,11.26,0,12.69l-0.01,0.01c-0.49,1.43-4.07,4.78-4.07,4.78l-11.96-15.84
									c-3.47-4.58-8.38-12.55-10.78-17.77c-0.35-0.76-0.78-1.48-1.35-2.1c-2.1-2.38-6.59-3.07-7.76,1.33
									c-0.31,1.18-0.2,3.09,0.19,4.24c5.01,14.78,11.37,25.95,17.18,37.59c3.46,6.91,2.17,6.83,3.9,9.95
									c-0.2,0.14-0.11,0.4-0.32,0.52c-0.85,3.36-1.43,6.73-2.28,10.09c-0.81-4.03-1.9-8.54-3.83-12.18
									c0.39-2.35,0.76-4.74,0.52-7.12c-0.22-2.38-1.14-4.77-2.96-6.31c-0.94-0.79-2.22-1.27-3.49-1.36
									c-1.89-0.14-3.56,1.24-3.84,3.11c-0.27,1.78-0.51,3.94-1.01,5.41c-1.51,4.56-2.76,6.63-2.76,6.79
									c0,4.46,2.76,3.73,4.77,21.68c1.56,13.97,19.56,23.21,29.36,33.3l10.44,32.85c12.12-4.86,23.72-11.08,34.85-18.3
									L347.67,388.48z"/>
							</defs>
							<use xlink:href="#XMLID_2_"  style="overflow:visible;fill:#FFFFFF;"/>
							<clipPath id="XMLID_6_">
								<use xlink:href="#XMLID_2_"  style="overflow:visible;"/>
							</clipPath>
							<g class="st9">
								<g>
									<path class="st0" d="M342.55,328.41c0.53-1.3,1.16-2.64,2.3-3.47s2.92-0.93,3.83,0.14c-0.75-2.29-1.54-4.57-2.38-6.83
										c-0.64-1.72-1.36-3.51-2.78-4.68c-1.42-1.16-3.76-1.41-4.98-0.03c0.87,5.22,0.96,10.56,0.28,15.8
										c-0.37,2.84-0.85,6.1,1.07,8.24c0.53,0.43,1.44-0.34,1.11-0.93c-0.16-0.28-0.72-0.3-0.97-0.27
										C340.63,333.66,341.49,330.99,342.55,328.41z"/>
									<path class="st0" d="M342.55,328.41c0.53-1.3,1.16-2.64,2.3-3.47s2.92-0.93,3.83,0.14c-0.75-2.29-1.54-4.57-2.38-6.83
										c-0.64-1.72-1.36-3.51-2.78-4.68c-1.42-1.16-3.76-1.41-4.98-0.03c0.87,5.22,0.96,10.56,0.28,15.8
										c-0.37,2.84-0.85,6.1,1.07,8.24c0.53,0.43,1.44-0.34,1.11-0.93c-0.16-0.28-0.72-0.3-0.97-0.27
										C340.63,333.66,341.49,330.99,342.55,328.41z"/>
									<path class="st10" d="M342.55,328.41c0.53-1.3,1.16-2.64,2.3-3.47s2.92-0.93,3.83,0.14c-0.75-2.29-1.54-4.57-2.38-6.83
										c-0.64-1.72-1.36-3.51-2.78-4.68c-1.42-1.16-3.76-1.41-4.98-0.03c0.87,5.22,0.96,10.56,0.28,15.8
										c-0.37,2.84-0.85,6.1,1.07,8.24c0.53,0.43,1.44-0.34,1.11-0.93c-0.16-0.28-0.72-0.3-0.97-0.27
										C340.63,333.66,341.49,330.99,342.55,328.41z"/>
								</g>
								<g>
									<path class="st0" d="M326.59,323.67c0.08,1.92,0.06,3.87,0.54,5.74c0.47,1.87,1.51,3.68,3.2,4.62
										c-0.99-3.73-0.46-7.67,0.09-11.49c0.33-2.32,0.66-4.64,0.99-6.96c0.11-0.81,0.24-1.65,0.71-2.31s1.37-1.11,2.11-0.77
										c-0.99,0.59-2.27-0.2-2.87-1.18c-0.6-0.98-0.83-2.17-1.54-3.07c-1.34-1.72-4.2-2.1-6.17-1.64
										C324.24,312.31,326.36,317.77,326.59,323.67z"/>
									<g>
										<path class="st0" d="M326.59,323.67c0.08,1.92,0.06,3.87,0.54,5.74c0.47,1.87,1.51,3.68,3.2,4.62
											c-0.99-3.73-0.46-7.67,0.09-11.49c0.33-2.32,0.66-4.64,0.99-6.96c0.11-0.81,0.24-1.65,0.71-2.31s1.37-1.11,2.11-0.77
											c-0.99,0.59-2.27-0.2-2.87-1.18c-0.6-0.98-0.83-2.17-1.54-3.07c-1.34-1.72-4.2-2.1-6.17-1.64
											C324.24,312.31,326.36,317.77,326.59,323.67z"/>
									</g>
									<g class="st11">
										<path class="st2" d="M326.59,323.67c0.08,1.92,0.06,3.87,0.54,5.74c0.47,1.87,1.51,3.68,3.2,4.62
											c-0.99-3.73-0.46-7.67,0.09-11.49c0.33-2.32,0.66-4.64,0.99-6.96c0.11-0.81,0.24-1.65,0.71-2.31s1.37-1.11,2.11-0.77
											c-0.99,0.59-2.27-0.2-2.87-1.18c-0.6-0.98-0.83-2.17-1.54-3.07c-1.34-1.72-4.2-2.1-6.17-1.64
											C324.24,312.31,326.36,317.77,326.59,323.67z"/>
									</g>
								</g>
								<g>
									<g>
										<path class="st0" d="M310.27,308.25c-0.65-0.47-0.86-1.33-1.05-2.1c-0.19-0.78-0.47-1.63-1.17-2.02
											c-3.07,1.95-1.39,7.66-4.5,9.55c-0.6,0.37-1.37,0.57-1.7,1.19c-0.3,0.56-0.11,1.3,0.33,1.76c0.44,0.46,1.07,0.69,1.7,0.81
											c2.47,0.44,5.07-0.82,6.55-2.85c1.22-1.67,2.06-4.38,1.46-6.37C311.4,308.49,310.73,308.59,310.27,308.25z"/>
										<path class="st0" d="M278.34,345.64c-0.06,0.21-0.1,0.48,0.08,0.62c0.26,0.22,0.61-0.12,0.81-0.4
											c1.29-1.83,3.84-2.66,5.96-1.93c0.81-0.02,1.08-1.25,0.55-1.86c-0.53-0.61-1.43-0.72-2.24-0.72
											c-0.81,0-1.68,0.04-2.36-0.39c-0.84-0.53-1.17-1.6-0.96-2.52C279.63,340.85,278.96,343.24,278.34,345.64z"/>
									</g>
									<g class="st11">
										<path class="st2" d="M310.27,308.25c-0.65-0.47-0.86-1.33-1.05-2.1c-0.19-0.78-0.47-1.63-1.17-2.02
											c-3.07,1.95-1.39,7.66-4.5,9.55c-0.6,0.37-1.37,0.57-1.7,1.19c-0.3,0.56-0.11,1.3,0.33,1.76c0.44,0.46,1.07,0.69,1.7,0.81
											c2.47,0.44,5.07-0.82,6.55-2.85c1.22-1.67,2.06-4.38,1.46-6.37C311.4,308.49,310.73,308.59,310.27,308.25z"/>
										<path class="st2" d="M278.34,345.64c-0.06,0.21-0.1,0.48,0.08,0.62c0.26,0.22,0.61-0.12,0.81-0.4
											c1.29-1.83,3.84-2.66,5.96-1.93c0.81-0.02,1.08-1.25,0.55-1.86c-0.53-0.61-1.43-0.72-2.24-0.72
											c-0.81,0-1.68,0.04-2.36-0.39c-0.84-0.53-1.17-1.6-0.96-2.52C279.63,340.85,278.96,343.24,278.34,345.64z"/>
									</g>
								</g>
								<g>
									<path class="st0" d="M319.06,307.49c-1.75-0.23-3.6-0.28-5.12-1.17c-1.91-1.12-3.21-3.51-5.42-3.6
										c-1.96-0.09-3.42,1.71-4.54,3.33c-0.13-2.44,1.67-4.72,3.94-5.63c2.27-0.91,4.88-0.62,7.15,0.28
										c2.27,0.9,4.27,2.37,6.21,3.86c0.78,0.6,1.57,1.22,2.1,2.05C325.83,310.5,320.6,307.7,319.06,307.49z"/>
									<path class="st10" d="M319.06,307.49c-1.75-0.23-3.6-0.28-5.12-1.17c-1.91-1.12-3.21-3.51-5.42-3.6
										c-1.96-0.09-3.42,1.71-4.54,3.33c-0.13-2.44,1.67-4.72,3.94-5.63c2.27-0.91,4.88-0.62,7.15,0.28
										c2.27,0.9,4.27,2.37,6.21,3.86c0.78,0.6,1.57,1.22,2.1,2.05C325.83,310.5,320.6,307.7,319.06,307.49z"/>
								</g>
							</g>
							<g class="st9">
								<path class="st0" d="M287.78,364.29c0.12-0.22,0.23-0.44,0.33-0.67C287.89,363.77,287.76,364,287.78,364.29z"/>
								<path class="st0" d="M290.75,348.79c-0.2-2.46,0.15-4.94,0.05-7.41c-0.1-2.47-0.75-5.07-2.55-6.77
									c-2.58-2.43-9.65-1.19-7.28,3.43c0.66,1.28,2.35,1.94,3.67,1.37c1.32-0.58,1.97-2.37,1.25-3.61
									c2.86,4.33,2.6,10.49-0.61,14.57c3.66,3.17,4.83,8.86,2.82,13.25c0.43-0.33,1.18-0.37,1.64-0.02
									c0.7,0.53,0.93,1.45,1.28,2.26c0.34,0.81,1,1.65,1.88,1.59c1.2-2.95,0.8-6.3,0.02-9.38
									C292.14,354.99,291,351.96,290.75,348.79z"/>
								<path class="st0" d="M316.62,302.42c-1.38-1.05-3.01-1.77-4.73-1.99L316.62,302.42z"/>
								<path class="st0" d="M328.38,333.71c-0.38-1.7-1.16-3.28-1.63-4.96c-1.09-3.91-0.41-8.09-0.91-12.12
									c-0.65-5.21-3.36-10.13-7.43-13.46l-1.79-0.76c1.71,1.31,3.03,3.16,3.6,5.24c1.38,4.77,1.82,9.76,2.43,14.7
									c0.95,7.61,2.34,15.16,4.16,22.61C328.01,341.32,329.21,337.46,328.38,333.71z"/>
								<path class="st0" d="M309.34,315.93c1.24-0.98,1.9-2.54,2.11-4.11c0.19-1.4,0.05-2.82-0.11-4.22
									c-0.12,0.6-0.9,1.11-1.57,0.95c-0.85-0.2-1.41-0.99-1.89-1.72c-0.12,0.42-0.24,0.84-0.37,1.26
									c-0.05-0.23-0.1-0.45-0.15-0.68l-0.47,0.6c0.71,2.01,1.39,4.34,0.3,6.16c-0.53,0.88-1.4,1.5-2.25,2.08
									C306.22,317.16,308.1,316.91,309.34,315.93z"/>
								<path class="st0" d="M311.28,307.1c0.02,0.17,0.04,0.33,0.06,0.5C311.37,307.44,311.36,307.27,311.28,307.1z"/>
								<path class="st0" d="M306.05,327.34c-3.51-6.89-7.02-13.78-10.87-20.48c-2.25-3.92-4.64-7.79-7.65-11.16
									c-1.33-1.5-5.16-4.96-7.27-2.68c-1.41,1.52,0.44,4.29-1.29,5.93c0.4,0.02,2.35-0.19,2.56,0.07
									c4.39,5.43,6.81,12.41,6.71,19.39c1.41-1.11,3.34,0.43,4.45,1.85c6.77,8.71,13.11,17.76,18.97,27.1
									c-1.14-4.13-1.16-8.51-2.39-12.62C308.5,332.16,307.28,329.74,306.05,327.34z"/>
								<path class="st0" d="M346.79,344.13c1.68-4.48,2.98-9.08,3.13-13.84c0.13-4.33-0.85-8.82-3.14-12.52
									c-0.58-0.94-2.98-4.77-4.3-4.46c-2.35,0.56,0.74,4.64,1.27,5.66c2.03,3.85,4.11,7.92,3.98,12.27
									c-0.1,3.35-1.51,6.5-2.64,9.66c-0.79,2.2-1.43,4.55-1.41,6.86c-0.17,0.26-0.33,0.52-0.52,0.77
									c-1.56,2.04-3.75,3.73-6.28,4.14c0.97-2.98,1.93-5.97,2.9-8.95c0.35-1.06,0.47-2.52-0.15-3.26c0.2-0.41,0.32-0.84,0.31-1.3
									c-0.03-0.82-0.5-1.55-0.85-2.3c-1.34-2.88-0.88-6.23-0.56-9.39c0.4-3.9,0.55-7.91-0.59-11.66
									c-1.14-3.75-3.79-7.23-7.51-8.47c0.32,0.34,0.64,0.69,0.95,1.03l-1.26-0.92c0.78,1.62,1.56,3.25,2.34,4.88
									c-0.29,0.41-0.58,0.82-0.86,1.23c1.29-0.68,2.94,0.3,3.53,1.64c0.59,1.33,0.43,2.86,0.29,4.31
									c-0.76,8.09-0.35,16.28,1.18,24.26c-0.15,1.86-0.47,3.75-1.44,5.34c-1.05,1.71-3.01,3-5,2.71c0.44-1.92-0.3-4.19-1.93-5.33
									c-2.02,2.8-0.83,7.15-0.52,10.34c0.47,4.83,1.24,9.63,2.32,14.36c0.31-4.1,1.17-8.16,2.55-12.04
									c1.09,3.95,2.18,7.9,3.26,11.85c0.03-1.11,0.08-2.26,0.62-3.23c0.54-0.97,1.73-1.67,2.76-1.28
									c0.85,0.32,1.31,1.22,1.65,2.06c2.83,6.79,3.54,14.44,2.01,21.63c1.34,0.75,3.12-0.16,3.86-1.5
									c0.74-1.34,0.74-2.96,0.71-4.5C347.25,370.81,347.02,357.47,346.79,344.13z"/>
								<path class="st0" d="M312.89,348.36c-0.64,1.12,1.98,5.58,2.41,6.64c2.2,5.38,4.41,10.76,6.61,16.14
									c-0.73-7.09-2.46-14.07-5.13-20.67C316.34,349.36,314.16,346.13,312.89,348.36z"/>
								<path class="st0" d="M316.31,319.84c-0.38,0.57-0.91,1.27-1.56,1.07c-0.61-0.19-0.71-0.99-0.7-1.62
									c0.06-3.74,0.12-7.49,0.18-11.23c-3.02,2.17-2.63,5.01-2.85,8.24c-0.12,1.87,0.42,10.8-0.86,11.89
									c2.99-2.55,5.52-5.63,7.44-9.06C317.44,318.69,316.68,319.27,316.31,319.84z"/>
								<g class="st11">
									<path class="st2" d="M287.78,364.29c0.12-0.22,0.23-0.44,0.33-0.67C287.89,363.77,287.76,364,287.78,364.29z"/>
									<path class="st2" d="M290.75,348.79c-0.2-2.46,0.15-4.94,0.05-7.41c-0.1-2.47-0.75-5.07-2.55-6.77
										c-2.58-2.43-9.65-1.19-7.28,3.43c0.66,1.28,2.35,1.94,3.67,1.37c1.32-0.58,1.97-2.37,1.25-3.61
										c2.86,4.33,2.6,10.49-0.61,14.57c3.66,3.17,4.83,8.86,2.82,13.25c0.43-0.33,1.18-0.37,1.64-0.02
										c0.7,0.53,0.93,1.45,1.28,2.26c0.34,0.81,1,1.65,1.88,1.59c1.2-2.95,0.8-6.3,0.02-9.38
										C292.14,354.99,291,351.96,290.75,348.79z"/>
									<path class="st2" d="M316.62,302.42c-1.38-1.05-3.01-1.77-4.73-1.99L316.62,302.42z"/>
									<path class="st2" d="M328.38,333.71c-0.38-1.7-1.16-3.28-1.63-4.96c-1.09-3.91-0.41-8.09-0.91-12.12
										c-0.65-5.21-3.36-10.13-7.43-13.46l-1.79-0.76c1.71,1.31,3.03,3.16,3.6,5.24c1.38,4.77,1.82,9.76,2.43,14.7
										c0.95,7.61,2.34,15.16,4.16,22.61C328.01,341.32,329.21,337.46,328.38,333.71z"/>
									<path class="st2" d="M309.34,315.93c1.24-0.98,1.9-2.54,2.11-4.11c0.19-1.4,0.05-2.82-0.11-4.22
										c-0.12,0.6-0.9,1.11-1.57,0.95c-0.85-0.2-1.41-0.99-1.89-1.72c-0.12,0.42-0.24,0.84-0.37,1.26
										c-0.05-0.23-0.1-0.45-0.15-0.68l-0.47,0.6c0.71,2.01,1.39,4.34,0.3,6.16c-0.53,0.88-1.4,1.5-2.25,2.08
										C306.22,317.16,308.1,316.91,309.34,315.93z"/>
									<path class="st2" d="M311.28,307.1c0.02,0.17,0.04,0.33,0.06,0.5C311.37,307.44,311.36,307.27,311.28,307.1z"/>
									<path class="st2" d="M306.05,327.34c-3.51-6.89-7.02-13.78-10.87-20.48c-2.25-3.92-4.64-7.79-7.65-11.16
										c-1.33-1.5-5.16-4.96-7.27-2.68c-1.41,1.52,0.44,4.29-1.29,5.93c0.4,0.02,2.35-0.19,2.56,0.07
										c4.39,5.43,6.81,12.41,6.71,19.39c1.41-1.11,3.34,0.43,4.45,1.85c6.77,8.71,13.11,17.76,18.97,27.1
										c-1.14-4.13-1.16-8.51-2.39-12.62C308.5,332.16,307.28,329.74,306.05,327.34z"/>
									<path class="st2" d="M346.79,344.13c1.68-4.48,2.98-9.08,3.13-13.84c0.13-4.33-0.85-8.82-3.14-12.52
										c-0.58-0.94-2.98-4.77-4.3-4.46c-2.35,0.56,0.74,4.64,1.27,5.66c2.03,3.85,4.11,7.92,3.98,12.27
										c-0.1,3.35-1.51,6.5-2.64,9.66c-0.79,2.2-1.43,4.55-1.41,6.86c-0.17,0.26-0.33,0.52-0.52,0.77
										c-1.56,2.04-3.75,3.73-6.28,4.14c0.97-2.98,1.93-5.97,2.9-8.95c0.35-1.06,0.47-2.52-0.15-3.26c0.2-0.41,0.32-0.84,0.31-1.3
										c-0.03-0.82-0.5-1.55-0.85-2.3c-1.34-2.88-0.88-6.23-0.56-9.39c0.4-3.9,0.55-7.91-0.59-11.66
										c-1.14-3.75-3.79-7.23-7.51-8.47c0.32,0.34,0.64,0.69,0.95,1.03l-1.26-0.92c0.78,1.62,1.56,3.25,2.34,4.88
										c-0.29,0.41-0.58,0.82-0.86,1.23c1.29-0.68,2.94,0.3,3.53,1.64c0.59,1.33,0.43,2.86,0.29,4.31
										c-0.76,8.09-0.35,16.28,1.18,24.26c-0.15,1.86-0.47,3.75-1.44,5.34c-1.05,1.71-3.01,3-5,2.71c0.44-1.92-0.3-4.19-1.93-5.33
										c-2.02,2.8-0.83,7.15-0.52,10.34c0.47,4.83,1.24,9.63,2.32,14.36c0.31-4.1,1.17-8.16,2.55-12.04
										c1.09,3.95,2.18,7.9,3.26,11.85c0.03-1.11,0.08-2.26,0.62-3.23c0.54-0.97,1.73-1.67,2.76-1.28
										c0.85,0.32,1.31,1.22,1.65,2.06c2.83,6.79,3.54,14.44,2.01,21.63c1.34,0.75,3.12-0.16,3.86-1.5
										c0.74-1.34,0.74-2.96,0.71-4.5C347.25,370.81,347.02,357.47,346.79,344.13z"/>
									<path class="st2" d="M312.89,348.36c-0.64,1.12,1.98,5.58,2.41,6.64c2.2,5.38,4.41,10.76,6.61,16.14
										c-0.73-7.09-2.46-14.07-5.13-20.67C316.34,349.36,314.16,346.13,312.89,348.36z"/>
									<path class="st2" d="M316.31,319.84c-0.38,0.57-0.91,1.27-1.56,1.07c-0.61-0.19-0.71-0.99-0.7-1.62
										c0.06-3.74,0.12-7.49,0.18-11.23c-3.02,2.17-2.63,5.01-2.85,8.24c-0.12,1.87,0.42,10.8-0.86,11.89
										c2.99-2.55,5.52-5.63,7.44-9.06C317.44,318.69,316.68,319.27,316.31,319.84z"/>
								</g>
							</g>
						</g>
						<g>
							<g>
								<g>
									<path class="st12" d="M323.97,307.59c1.77,6.52,2.68,13.27,2.73,20.02c0.01,1.13-0.01,2.29,0.36,3.36
										c0.36,1.07,1.19,2.06,2.29,2.29"/>
									<path class="st12" d="M338.11,314.16c2.97,6.26-0.07,20.24,0.15,21.23c0.22,0.98,0.79,1.94,1.69,2.4"/>
									<g>
										<path class="st12" d="M312.33,306.74c-0.35,1.99-0.64,4.3-0.99,6.29c-2.32-1.98-3.8-4.92-4.01-7.96"/>
										<path class="st12" d="M293.17,360.09c-0.72,0.32-1.44,0.63-2.16,0.95"/>
										<path class="st12" d="M293.72,361.82c-0.35,1.66-0.36,3.39-0.02,5.06"/>
										<path class="st12" d="M306.36,343.14c0.8,1.44,1.6,2.87,2.39,4.31"/>
										<path class="st12" d="M310.95,327.36c0.79-1.12,1.59-2.24,2.38-3.36"/>
										<path class="st12" d="M344.43,343.14c-0.24,0.88-0.48,1.76-0.72,2.63"/>
										<path class="st12" d="M338.61,335.93c0.7-2.24,1.4-4.48,2.11-6.72"/>
										<path class="st12" d="M345.65,324.01c1.24-0.72,3.03-0.16,3.64,1.13"/>
										<path class="st12" d="M331.28,312.53c1.65-0.48,3.54-0.05,4.82,1.1"/>
										<path class="st12" d="M286.74,319.2c1.54-1.71,3.92-2.61,6.21-2.34"/>
									</g>
								</g>
								<path class="st12" d="M277.71,300.34c1.43-1.05,3.29-1.48,5.04-1.18"/>
								<path class="st2" d="M279.57,345.09c-1.16,0.92-2.16,2.04-2.93,3.3L279.57,345.09z"/>
							</g>
							<path class="st12" d="M280.53,340.55c1.58-1.13,4.1,1.4,5.55,0.11c0.58-0.51,0.62-1.4,0.49-2.17
								c-0.13-0.76-0.4-1.53-0.29-2.29"/>
						</g>
					</g>
				</g>
				<path class="st12" d="M325.12,333.61c1.92,3.94,2.32,8.6,1.1,12.82"/>
				<path class="st12" d="M336.74,339.78c0.32,1.87-0.05,3.85-1,5.5"/>
			</g>
		</g>
		<g>
			<g>
				<g>
					<g>
						<g>
							<path class="st13" d="M321.11,436.09l-10.44-32.85c-9.8-10.09-27.8-19.33-29.36-33.3c-2.01-17.94-4.77-17.22-4.77-21.68
								c0-0.16,1.25-2.24,2.76-6.79c0.49-1.48,0.74-3.64,1.01-5.41c0.28-1.87,1.95-3.25,3.84-3.11c1.27,0.09,2.55,0.57,3.49,1.36
								c1.82,1.54,2.74,3.94,2.96,6.31c0.24,2.38-0.14,4.76-0.52,7.12c1.93,3.64,3.02,8.14,3.83,12.18
								c0.85-3.36,1.43-6.73,2.28-10.09c0.21-0.13,0.12-0.39,0.32-0.52c-1.72-3.12-0.44-3.04-3.9-9.95
								c-5.81-11.64-12.18-22.81-17.18-37.59c-0.4-1.14-0.5-3.06-0.19-4.24c1.17-4.4,5.66-3.7,7.76-1.33c0.57,0.62,1,1.34,1.35,2.1
								c2.4,5.22,7.31,13.19,10.78,17.77l11.96,15.84c0,0,3.57-3.35,4.07-4.78l0.01-0.01c0.47-1.43,0-12.69,0-12.69
								s-0.72,2.16-2.63,2.16c-1.38,0-4.12,0.98-6.26-1.12c-1.74-1.71-1.93-4.46-0.61-6.52l4.47-6.97c0,0,3.11-3.11,7.66-1.44
								c4.55,1.68,9.1,5.51,9.1,5.51s4.08-0.48,7.66,0.95c3.6,1.44,7.57,6.01,7.57,6.01s4.08-0.02,5.99,1.18
								c0.48,0.3,7.32,9.53,5.59,17.2c-1.03,4.57-1.41,11.13-1.89,12.92l-0.12,44.2l8.29,29.31"/>
						</g>
						<g>
							<g>
								<g>
									<path class="st13" d="M323.97,307.59c1.77,6.52,2.68,13.27,2.73,20.02c0.01,1.13-0.01,2.29,0.36,3.36
										c0.36,1.07,1.19,2.06,2.29,2.29"/>
									<path class="st13" d="M338.11,314.16c2.97,6.26-0.07,20.24,0.15,21.23c0.22,0.98,0.79,1.94,1.69,2.4"/>
									<g>
										<path class="st13" d="M312.33,306.74c-0.35,1.99-0.64,4.3-0.99,6.29c-2.32-1.98-3.8-4.92-4.01-7.96"/>
										<path class="st13" d="M293.17,360.09c-0.72,0.32-1.44,0.63-2.16,0.95"/>
										<path class="st13" d="M293.72,361.82c-0.35,1.66-0.36,3.39-0.02,5.06"/>
										<path class="st13" d="M306.36,343.14c0.8,1.44,1.6,2.87,2.39,4.31"/>
										<path class="st13" d="M310.95,327.36c0.79-1.12,1.59-2.24,2.38-3.36"/>
										<path class="st13" d="M344.43,343.14c-0.24,0.88-0.48,1.76-0.72,2.63"/>
										<path class="st13" d="M338.61,335.93c0.7-2.24,1.4-4.48,2.11-6.72"/>
										<path class="st13" d="M345.65,324.01c1.24-0.72,3.03-0.16,3.64,1.13"/>
										<path class="st13" d="M331.28,312.53c1.65-0.48,3.54-0.05,4.82,1.1"/>
										<path class="st13" d="M286.74,319.2c1.54-1.71,3.92-2.61,6.21-2.34"/>
									</g>
								</g>
								<path class="st13" d="M277.71,300.34c1.43-1.05,3.29-1.48,5.04-1.18"/>
								<path class="st13" d="M279.57,345.09c-1.16,0.92-2.16,2.04-2.93,3.3"/>
							</g>
							<path class="st13" d="M280.53,340.55c1.58-1.13,4.1,1.4,5.55,0.11c0.58-0.51,0.62-1.4,0.49-2.17
								c-0.13-0.76-0.4-1.53-0.29-2.29"/>
						</g>
					</g>
				</g>
				<path class="st13" d="M325.12,333.61c1.92,3.94,2.32,8.6,1.1,12.82"/>
				<path class="st13" d="M336.74,339.78c0.32,1.87-0.05,3.85-1,5.5"/>
			</g>
		</g>
		<path class="st4" d="M240.05,354.79c0.09,0.69,0.06,1.4-0.09,2.08c-0.65,3.01-2.53,11.78-3.22,16.58c-0.82,5.86-10.29,24-10.29,24
			s-8.72,10.84-13.16,16.48c-2.18,2.77-5.63,13.98-8.56,24.66c-3.7-1.12-7.36-2.33-11-3.62c-3.01-1.07-6.02-2.2-8.99-3.37
			c-4.18-1.65-9.51-4.27-15.63-7.62c1.66-6.03,2.77-10.67,2.75-10.94c-0.05-0.63,3.56-7.58,3.56-7.58l-3.15-41.44l-1.86-6.31
			c-0.97-3.26-1.58-6.62-1.83-9.98c-0.39-5.13,0.04-10.3,1.29-15.33l5.43-8.06l2.54-0.19l7.86-10.98c0,0,4.25-1.28,5.34,1.92
			c1.09,3.21-3.54,9.18-3.54,9.18l-1.59,9.87l3.78,9.24l1.96,0.72c0,0,0.66-16.27,0.21-19.52l4.18-14.85c0,0,2.49-4.96,3.26-7.46
			c0.76-2.49,5.23-4.96,7.8-0.59c0,0,1.43,2.22,0.4,5.27c-1.05,3.05-1.92,5.45-1.92,5.45s-0.95,12.58-1.25,12.93
			c-0.3,0.33,1.85,18.73,1.85,18.73l1.64,0.73l0.58-17.55l3.41-16.49c0,0-0.28-7.93,5.31-6.97c0,0,2.62-0.3,4.11,2.56
			c1.49,2.85,0.07,21.83,0.07,21.83l1.38,19.62l2.21,15.13l2.6-10.37c0,0,0.15-14.86,9.53-16.13c0,0,2.79-0.5,3.36,1.44
			c0.57,1.93-1.39,5.9-1.11,9.7C239.48,350.23,239.86,353.24,240.05,354.79z"/>
		<g>
			<g>
				<defs>
					<path id="XMLID_1_" d="M237.2,336.42c-0.43-1.98-3.24-1.69-3.24-1.69c-9.45,0.56-10.72,15.37-10.72,15.37l-3.38,10.14
						l-1.06-15.26l0.11-19.67c0,0,2.86-18.82,1.58-21.78c-1.26-2.96-3.91-2.86-3.91-2.86c-5.5-1.38-5.82,6.55-5.82,6.55l-4.64,16.18
						l-1.9,17.45l-1.58-0.85c0,0-0.75-18.51-0.43-18.82c0.32-0.32,2.23-12.8,2.23-12.8s1.05-2.32,2.32-5.29c1.26-2.96,0-5.29,0-5.29
						c-2.23-4.55-6.87-2.43-7.82,0c-0.95,2.43-3.81,7.19-3.81,7.19l-5.3,14.49c0.2,3.27-1.68,19.45-1.68,19.45l-1.9-0.87l-3.07-9.5
						l2.33-9.73c0,0,5.07-5.6,4.23-8.88c-0.85-3.27-5.18-2.32-5.18-2.32l-8.67,10.36h-2.55l-6.02,7.62
						c-1.63,4.92-2.45,10.05-2.45,15.19c0,3.37,0.35,6.76,1.07,10.09l1.38,6.43v41.56c0,0-4.12,6.66-4.12,7.29
						c0,0.29-1.7,5.54-4.08,12.09c10.37,6.1,19.3,10.82,25.63,13.31c2.97,1.18,5.98,2.3,9,3.37c3.8-10.67,8.24-22.09,10.69-24.75
						c4.86-5.29,14.37-15.44,14.37-15.44s10.82-17.37,12.08-23.15c1.05-4.74,3.58-13.34,4.46-16.3c0.2-0.66,0.29-1.37,0.25-2.07
						c-0.07-1.56-0.22-4.59-0.22-7.27C235.36,342.2,237.62,338.39,237.2,336.42z"/>
				</defs>
				<use xlink:href="#XMLID_1_"  style="overflow:visible;fill:#FFFFFF;"/>
				<clipPath id="XMLID_7_">
					<use xlink:href="#XMLID_1_"  style="overflow:visible;"/>
				</clipPath>
				<path class="st14" d="M172.3,332.24c1.61-2.01,4.94-2.79,6.81-1.02c1.08,1.02,1.44,2.56,1.71,4.01c0.27,1.45,0.54,3,1.51,4.12
					c0.96,1.12,2.89,1.56,3.91,0.49c0.13,2.19,0.27,4.38,0.4,6.57c2.34-4.06,3.54-8.76,3.44-13.44c-0.05-2.27-0.39-4.59,0.14-6.8
					s2.24-4.37,4.52-4.47c2.52-0.11,4.51,2.34,5,4.82c0.48,2.48-0.08,5.02-0.24,7.54c-0.23,3.84,0.52,7.74,2.17,11.21
					c0.53-1.07,1.06-2.14,1.59-3.22c0.48,2.15,0.95,4.3,1.43,6.45c0.41-4.74,0.83-9.47,1.24-14.21c0.12-1.34,0.24-2.72,0.87-3.9
					c0.62-1.19,1.87-2.15,3.21-2.02c1.8,0.18,2.84,2.1,3.44,3.81c4.51,12.74,2.65,26.74,0.74,40.12c1.25,0.22,2.3-1.04,2.62-2.27
					c0.31-1.23,0.2-2.57,0.67-3.75c0.47-1.18,1.92-2.16,2.99-1.48c1.58,0.99,0.47,4.06,2.13,4.91c0.51-3.96,2.09-7.77,4.53-10.93
					c1.11-1.44,2.77-2.87,4.53-2.41c1.31,0.34,2.17,1.68,2.36,3.02c0.19,1.34,2.13-4.2,1.8-2.89c0.76-7.71-0.76-8.53,0-16.24
					c0.14-1.39,2.39-3.81,1.43-4.83c-0.91-0.97-3.63-2.39-4.84-1.83c-1.21,0.56-5.14,2.51-5.92,3.59
					c-4.91,6.78-4.58,16.61-6.11,24.85c-1.3-12.56-2.6-25.33-0.3-37.74c1.27-6.85,3.61-13.98,1.4-20.59
					c-1.01-3.01-3.69-6.03-6.82-5.46c-2.52,0.46-4.05,3.01-5.07,5.36c-3.44,7.9-4.97,16.48-6.48,24.97
					c1.88-8.54,3.76-17.08,5.64-25.62c0.49-2.22,0.98-4.51,0.58-6.75c-0.4-2.24-1.93-4.43-4.16-4.9c-2.21-0.46-4.4,0.84-6.06,2.36
					c-5.94,5.44-8.16,13.73-10.09,21.55c0.68-2.04,1.37-4.16,1.16-6.3c-0.21-2.14-1.57-4.33-3.68-4.79c-2.72-0.6-5.2,1.83-6.39,4.35
					c-1.2,2.52-1.79,5.41-3.69,7.45c-1.39-1.56-4-1.47-5.75-0.32c-1.74,1.16-2.8,3.09-3.65,5c-3.13,7.02-4.47,14.82-3.87,22.48
					c1.38-3.07,4.86-5.06,8.21-4.67c-0.2-1.7-0.4-3.41-0.6-5.11"/>
				<g class="st15">
					<g>
						<path class="st0" d="M178.89,348.51c-0.08,1.26-0.17,2.52-0.25,3.79c0.39-1.05,1.93-1.44,2.77-0.7
							c-0.19-0.8,0.31-1.58,0.63-2.34c0.32-0.76,0.35-1.84-0.39-2.2c-0.88-0.43-1.75,0.58-2.21,1.44c-0.04-0.31-0.08-0.63-0.12-0.94
							L178.89,348.51z"/>
					</g>
					<g>
						<path class="st0" d="M193.23,346.25c-1.03,1.18-1.74,2.64-2.02,4.18c0.43-0.43,0.89-0.86,1.46-1.07
							c0.57-0.21,1.3-0.12,1.66,0.37c0.23,0.3,0.31,0.74,0.64,0.92c0.34,0.18,0.77-0.04,0.98-0.36c0.2-0.32,0.23-0.72,0.26-1.1
							c0.05-0.73,0.09-1.47-0.12-2.17c-0.21-0.7-0.73-1.35-1.44-1.5c-0.71-0.15-1.56,0.37-1.56,1.1L193.23,346.25z"/>
					</g>
					<g>
						<path class="st0" d="M207.12,349.69c-1.1,1.47-1.82,3.22-2.1,5.03c0.74-0.11,1.35-0.59,1.94-1.04
							c0.59-0.46,1.23-0.92,1.97-0.98c0.74-0.06,1.58,0.48,1.55,1.22c-0.14-0.84-0.01-1.7,0.08-2.54c0.09-0.85,0.13-1.73-0.19-2.52
							c-0.32-0.79-1.08-1.46-1.93-1.41c-0.85,0.05-1.58,1.04-1.18,1.79L207.12,349.69z"/>
					</g>
					<g>
						<path class="st0" d="M168.91,354.71c-0.77,1.44-1.17,3.07-1.16,4.71c0.01-0.75,0.72-1.36,1.46-1.47
							c0.74-0.11,1.49,0.18,2.14,0.57c0.15-0.76,0.3-1.54,0.14-2.29s-0.71-1.48-1.47-1.61c-0.76-0.12-1.6,0.61-1.39,1.35
							c-0.08-0.19-0.16-0.38-0.24-0.58L168.91,354.71z"/>
					</g>
				</g>
				<path id="XMLID_3_" class="st16" d="M172.3,332.24c1.61-2.01,4.94-2.79,6.81-1.02c1.08,1.02,1.44,2.56,1.71,4.01
					c0.27,1.45,0.54,3,1.51,4.12c0.96,1.12,2.89,1.56,3.91,0.49c0.13,2.19,0.27,4.38,0.4,6.57c2.34-4.06,3.54-8.76,3.44-13.44
					c-0.05-2.27-0.39-4.59,0.14-6.8s2.24-4.37,4.52-4.47c2.52-0.11,4.51,2.34,5,4.82c0.48,2.48-0.08,5.02-0.24,7.54
					c-0.23,3.84,0.52,7.74,2.17,11.21c0.53-1.07,1.06-2.14,1.59-3.22c0.48,2.15,0.95,4.3,1.43,6.45c0.41-4.74,0.83-9.47,1.24-14.21
					c0.12-1.34,0.24-2.72,0.87-3.9c0.62-1.19,1.87-2.15,3.21-2.02c1.8,0.18,2.84,2.1,3.44,3.81c4.51,12.74,2.65,26.74,0.74,40.12
					c1.25,0.22,2.3-1.04,2.62-2.27c0.31-1.23,0.2-2.57,0.67-3.75c0.47-1.18,1.92-2.16,2.99-1.48c1.58,0.99,0.47,4.06,2.13,4.91
					c0.51-3.96,2.09-7.77,4.53-10.93c1.11-1.44,2.77-2.87,4.53-2.41c1.31,0.34,2.17,1.68,2.36,3.02c0.19,1.34,2.13-4.2,1.8-2.89
					c0.76-7.71-0.76-8.53,0-16.24c0.14-1.39,2.39-3.81,1.43-4.83c-0.91-0.97-3.63-2.39-4.84-1.83c-1.21,0.56-5.14,2.51-5.92,3.59
					c-4.91,6.78-4.58,16.61-6.11,24.85c-1.3-12.56-2.6-25.33-0.3-37.74c1.27-6.85,3.61-13.98,1.4-20.59
					c-1.01-3.01-3.69-6.03-6.82-5.46c-2.52,0.46-4.05,3.01-5.07,5.36c-3.44,7.9-4.97,16.48-6.48,24.97
					c1.88-8.54,3.76-17.08,5.64-25.62c0.49-2.22,0.98-4.51,0.58-6.75c-0.4-2.24-1.93-4.43-4.16-4.9c-2.21-0.46-4.4,0.84-6.06,2.36
					c-5.94,5.44-8.16,13.73-10.09,21.55c0.68-2.04,1.37-4.16,1.16-6.3c-0.21-2.14-1.57-4.33-3.68-4.79c-2.72-0.6-5.2,1.83-6.39,4.35
					c-1.2,2.52-1.79,5.41-3.69,7.45c-1.39-1.56-4-1.47-5.75-0.32c-1.74,1.16-2.8,3.09-3.65,5c-3.13,7.02-4.47,14.82-3.87,22.48
					c1.38-3.07,4.86-5.06,8.21-4.67c-0.2-1.7-0.4-3.41-0.6-5.11"/>
				<g class="st17">
					<g>
						<path class="st2" d="M178.89,348.51c-0.08,1.26-0.17,2.52-0.25,3.79c0.39-1.05,1.93-1.44,2.77-0.7
							c-0.19-0.8,0.31-1.58,0.63-2.34c0.32-0.76,0.35-1.84-0.39-2.2c-0.88-0.43-1.75,0.58-2.21,1.44c-0.04-0.31-0.08-0.63-0.12-0.94
							L178.89,348.51z"/>
					</g>
					<g>
						<path class="st2" d="M193.23,346.25c-1.03,1.18-1.74,2.64-2.02,4.18c0.43-0.43,0.89-0.86,1.46-1.07
							c0.57-0.21,1.3-0.12,1.66,0.37c0.23,0.3,0.31,0.74,0.64,0.92c0.34,0.18,0.77-0.04,0.98-0.36c0.2-0.32,0.23-0.72,0.26-1.1
							c0.05-0.73,0.09-1.47-0.12-2.17c-0.21-0.7-0.73-1.35-1.44-1.5c-0.71-0.15-1.56,0.37-1.56,1.1L193.23,346.25z"/>
					</g>
					<g>
						<path class="st2" d="M207.12,349.69c-1.1,1.47-1.82,3.22-2.1,5.03c0.74-0.11,1.35-0.59,1.94-1.04
							c0.59-0.46,1.23-0.92,1.97-0.98c0.74-0.06,1.58,0.48,1.55,1.22c-0.14-0.84-0.01-1.7,0.08-2.54c0.09-0.85,0.13-1.73-0.19-2.52
							c-0.32-0.79-1.08-1.46-1.93-1.41c-0.85,0.05-1.58,1.04-1.18,1.79L207.12,349.69z"/>
					</g>
					<g>
						<path class="st2" d="M168.91,354.71c-0.77,1.44-1.17,3.07-1.16,4.71c0.01-0.75,0.72-1.36,1.46-1.47
							c0.74-0.11,1.49,0.18,2.14,0.57c0.15-0.76,0.3-1.54,0.14-2.29s-0.71-1.48-1.47-1.61c-0.76-0.12-1.6,0.61-1.39,1.35
							c-0.08-0.19-0.16-0.38-0.24-0.58L168.91,354.71z"/>
					</g>
				</g>
			</g>
			<g>
				<path class="st13" d="M159.11,418.29c2.38-6.55,4.08-11.8,4.08-12.09c0-0.63,4.12-7.29,4.12-7.29v-41.56l-1.38-6.43
					c-0.72-3.33-1.07-6.72-1.07-10.09c0-5.15,0.82-10.27,2.45-15.19l6.02-7.62h2.55l8.67-10.36c0,0,4.33-0.95,5.18,2.32
					c0.85,3.29-4.23,8.88-4.23,8.88l-2.33,9.73l3.07,9.5l1.9,0.87c0,0,1.88-16.18,1.68-19.45l5.3-14.49c0,0,2.86-4.76,3.81-7.19
					c0.95-2.43,5.6-4.55,7.82,0c0,0,1.26,2.32,0,5.29c-1.27,2.96-2.32,5.29-2.32,5.29s-1.9,12.48-2.23,12.8
					c-0.32,0.31,0.43,18.82,0.43,18.82l1.58,0.85l1.9-17.45l4.64-16.18c0,0,0.32-7.93,5.82-6.55c0,0,2.64-0.11,3.91,2.86
					c1.27,2.95-1.58,21.78-1.58,21.78l-0.11,19.67l1.06,15.26l3.38-10.14c0,0,1.27-14.81,10.72-15.37c0,0,2.81-0.29,3.24,1.69
					c0.42,1.97-1.84,5.78-1.84,9.59c0,2.68,0.15,5.7,0.22,7.27c0.04,0.7-0.04,1.4-0.25,2.07c-0.88,2.95-3.41,11.56-4.46,16.3
					c-1.26,5.78-12.08,23.15-12.08,23.15s-9.51,10.15-14.37,15.44c-2.45,2.66-6.89,14.08-10.69,24.75"/>
			</g>
			<path class="st5" d="M187.96,340.52c0.55,1.97-0.01,4.22-1.42,5.7"/>
			<path class="st5" d="M171.84,354.5c1.38-2.13,2.71-5.05,2.34-7.56c-0.72-4.91-2.96-10.56-1.95-15.42
				c0.64-3.1,1.29-6.21,1.93-9.31"/>
			<path class="st13" d="M211.71,308.12c1.63-0.43,3.36-0.42,4.99,0.01c0.02-0.46,0.04-0.93,0.06-1.39"/>
			<path class="st13" d="M198.58,301.88c0.96,0.69,2.31,0.78,3.35,0.23c1.04-0.55,1.73-1.72,1.7-2.9"/>
			<path class="st13" d="M234.72,336.59c-2.78,0.63-4.85,3.5-4.59,6.33c0.82,0.24,1.63,0.49,2.45,0.73"/>
			<path class="st5" d="M202.54,337.81c0.11,1.68-0.09,5.69,0.02,7.37"/>
			<path class="st5" d="M204.38,340.14c-0.2,2.75-0.4,5.5-0.61,8.24c0.02-0.35,0.03-0.7,0.05-1.05"/>
			<path class="st5" d="M219.64,363.31c0.73,3.01,0.4,6.26-0.93,9.06"/>
			<path class="st13" d="M194.29,348.9c-2.18,2.39-1.86,8.12-0.32,11.28"/>
			<path class="st13" d="M210.4,352.85c0.05,2.58-0.89,5.17-2.67,7.33"/>
			<path class="st13" d="M178.41,350.04c-0.36,2.4,0.18,4.93,1.49,6.97"/>
			<path class="st13" d="M169.13,357.51c-0.11,1.89,0.45,3.8,1.54,5.34"/>
			<path class="st13" d="M181.85,311.41c1.13-0.55,2.59-0.31,3.5,0.56c0.41-0.54,0.82-1.09,1.24-1.63"/>
			<path class="st13" d="M192.11,318.75c1.65-1.05,4.07-0.64,5.29,0.9"/>
			<path class="st13" d="M208.13,323.75c1.78-0.81,3.93-0.76,5.68,0.12"/>
			<path class="st13" d="M172.48,332.14c1.04-1.79,3.19-2.86,5.24-2.6"/>
			<path class="st13" d="M165.77,341.7c0.03-1.29,1.09-2.49,2.37-2.66"/>
		</g>
	</g>
</g>
<g id="Coffee">
	<g>
		<circle class="st18" cx="423.44" cy="228.39" r="41.45"/>
		<g>
			<g>
				<g>
					<path class="st4" d="M470.36,229.48c-8.84,14.49-11.98,12.54-42.12,26.98c-15.3,7.33-30.09-16.24-20.09-40.43
						c0.49-1.18,4.81-7.15,4.81-7.15c1.82-8,8.46-14.7,16.45-16.58c7.98-1.89,16.92,1.12,22.13,7.46
						c5.66-5.01,13.87-6.87,21.18-5.06c0.35,1.02,0.68,2.02,1,3c0.12,0.38,0.25,0.75,0.36,1.13c0.38,1.17,0.74,2.34,1.07,3.52
						c0.66,2.24,1.27,4.49,1.84,6.76c-3.33-0.93-6.68-0.95-9.84,0.59c-2.21,1.08-4.06,2.86-6.36,3.74c-2.3,0.87-5.48,0.38-6.36-1.92
						c1.11,4.62,5.96,3.24,10.62,4.15C472.25,217.09,474.08,223.38,470.36,229.48z"/>
				</g>
				<g>
					<path class="st19" d="M456.75,222.33c0,0,7.42-1.01,10.95-0.48c2.24,0.33,3.61,1.64,4.27,2.45c0.3,0.38,0.48,0.84,0.51,1.32
						l0.4,5.8c0.05,0.66-0.18,1.32-0.64,1.8c-1.45,1.51-5.82,4.26-18.75,5.25C435.28,239.86,456.75,222.33,456.75,222.33z"/>
					<g>
						<path class="st19" d="M451.32,207.34c2.09,2.6,6.07,8.49,6.07,17.63c0,6.91-8,30.51-28.49,33.38
							c-21.69,3.04-39.12-15.52-35.4-37.86C396.08,205.05,433.91,185.7,451.32,207.34z"/>
						<ellipse class="st2" cx="424.82" cy="223.41" rx="31.47" ry="29.79"/>
						<ellipse class="st8" cx="424.76" cy="224.97" rx="25.84" ry="24.45"/>
						<path class="st18" d="M456.29,223.41c0-16.45-14.09-29.79-31.47-29.79c-17.38,0-31.47,13.34-31.47,29.79"/>
						<path class="st18" d="M447.99,243.57c5.16-5.3,8.3-12.38,8.3-20.16"/>
						<path class="st18" d="M402.78,244.67c5.68,5.28,13.46,8.53,22.04,8.53c5.27,0,10.24-1.23,14.61-3.4"/>
						<path class="st18" d="M398.24,239.36c0.41,0.61,0.85,1.21,1.31,1.8"/>
						<path class="st18" d="M393.35,223.41c0,4.55,1.08,8.85,3,12.71"/>
					</g>
					<path class="st19" d="M471.01,231.57c0,0-5.61-3.92-14.71-0.37"/>
					<path class="st19" d="M466.18,234.29c-2.15,0.64-5.75,1.37-11.64,1.83"/>
					<path class="st19" d="M469.09,233.05c0,0-0.34,0.3-1.4,0.72"/>
				</g>
			</g>
			<g>
				<g>
					<path class="st2" d="M474.08,198.83c-0.11-0.38-0.24-0.75-0.36-1.13c-1.91-5.92-4.37-12.42-7.36-19.28
						c-0.55-1.27-1.13-2.56-1.71-3.86c-0.23,0.02-0.45,0.04-0.67,0.06c-2.87,0.29-5.89,0.65-8.25,2.28
						c-2.37,1.66-3.77,5.07-2.24,7.52c1.5,2.43,5.43,3.78,4.81,6.55c-6.41,3.61-14.23,3.19-21.36,5.01
						c-4.29,1.09-8.35,3.02-11.91,5.62c-0.01,0-0.01,0.01-0.02,0.01c-1.13,0.85-2.22,1.75-3.24,2.72c-0.45,0.43-0.92,0.9-1.32,1.42
						c-0.01,0.01-0.01,0.01-0.01,0.02c-0.59,0.75-1.04,1.59-1.13,2.54c-0.25,2.67,2.18,4.49,4.77,5.65
						c0.48,0.22,0.45,0.91-0.04,1.08c-1.69,0.68-3.34,1.47-4.67,2.7c-0.01,0-0.02,0.01-0.03,0.02c-0.82,0.74-0.15,2.13,0.97,1.98
						c0.12-0.02,0.27-0.03,0.4-0.04c1.1-0.08,2.13,0.05,3.02,0.36c1.53,0.54,2.6,1.58,2.71,2.86c0.16,2.03-2.15,3.86-5.15,4.09
						c-0.73,0.07-0.17,0.94,0.9,1.12c2.13,0.38,4.3-0.03,6.4-0.52c2.51-0.6,5.19-1.47,6.61-3.62c0.6-0.91,0.78-2.1,0.6-3.18
						c-0.25-1.48-1.18-2.77-2.66-2.92c4.64-0.55,9.24-1.47,13.72-2.75h0.01l1.41-0.43c1.34-0.4,2.75-0.89,3.87-1.69
						c0.7-0.5,1.28-1.09,1.69-1.86c1.04-2.01-0.43-5.19-2.65-4.77c6.45-2.53,13.27-4.01,19.79-6.34
						C472.02,199.67,473.06,199.27,474.08,198.83z"/>
				</g>
			</g>
		</g>
	</g>
</g>
<g id="Monitor">
	<g>
		<path class="st4" d="M424.64,112.33c-6.04,5.37-12.94,9.93-19.9,14.04c-36.41,21.54-77.54,34.44-119.38,40.73
			c-41.83,6.29-84.44,6.1-126.6,2.63c-8.28-0.68-16.7-1.52-24.31-4.86c-6.45-2.84-12.3-7.78-15.04-14.17
			c9.13-10.4,17.62-20.92,27.07-30.85c2.25-2.37,4.55-4.7,6.92-6.99c2-1.91,4.03-3.79,6.14-5.63c2.41-2.12,4.89-4.19,7.49-6.19
			c3.55-2.76,7.29-5.41,11.29-7.94c0.98-0.63,1.95-1.24,2.93-1.84c99.71-61.97,173.1-41.74,222.06,0c3.69,3.13,7.25,6.4,10.66,9.78
			c2.08,2.01,4.09,4.09,6.04,6.19c0.22,0.22,0.42,0.45,0.63,0.69C422.01,109.38,423.34,110.85,424.64,112.33z"/>
		<path class="st19" d="M428.58,102.39l-335.47,1.53l5.07-7.6c2.44-3.66,6.54-5.85,10.94-5.85h303.56c3.98,0,7.75,1.8,10.25,4.9
			L428.58,102.39z"/>
		<g>
			<g>
				<path class="st20" d="M266.69,239.36h-18.38c-18.86,0-34.15-15.29-34.15-34.15v-18.38c0-18.86,15.29-34.15,34.15-34.15h18.38
					c18.86,0,34.15,15.29,34.15,34.15v18.38C300.84,224.07,285.55,239.36,266.69,239.36z"/>
				<path class="st21" d="M229.91,203.34v12.32c0,3.87,3.13,7,7,7h42.27c3.85,0,6.96-3.11,7-6.95c0.05-5.54,0.35-12.37,0.35-12.37
					H229.91z"/>
				<g>
					<g>
						<path class="st22" d="M384.62,207.46H137.41c-2.61,0-4.95-1.6-5.9-4.03l-38.13-97.86c-1-2.56,0.89-5.32,3.64-5.32h327.99
							c2.75,0,4.64,2.76,3.64,5.32l-38.13,97.86C389.57,205.85,387.23,207.46,384.62,207.46z"/>
						<polygon class="st8" points="386.45,198.93 134.98,198.93 100.38,106.44 420.89,106.44 						"/>
					</g>
				</g>
			</g>
			<rect x="230.18" y="207.32" class="st8" width="56.06" height="3.84"/>
			<g>
				<g>
					<path class="st0" d="M349.72,194.95H172.14c-0.98,0-1.91-0.44-2.08-0.99l-25.26-80.25c-0.28-0.9,0.5-1.63,1.76-1.63h228.73
						c1.26,0,2.04,0.73,1.76,1.63l-25.26,80.25C351.62,194.51,350.69,194.95,349.72,194.95z"/>
					<polygon class="st8" points="349.06,193.14 172.8,193.14 151.33,122.62 370.53,122.62 					"/>
					<g>
						<path class="st2" d="M198.1,140.13h-33.37c-0.82,0-1.37,0.44-1.21,0.99c0.16,0.54,0.95,0.99,1.76,0.99h33.18
							c0.82,0,1.4-0.44,1.31-0.99C199.67,140.57,198.92,140.13,198.1,140.13z"/>
						<path class="st2" d="M199.21,146.22h-28.38c-0.81,0-1.35,0.43-1.21,0.96c0.14,0.53,0.91,0.95,1.72,0.95h28.22
							c0.8,0,1.38-0.43,1.29-0.95C200.76,146.65,200.02,146.22,199.21,146.22z"/>
						<path class="st10" d="M200.29,152.1h-32.2c-0.8,0-1.32,0.41-1.18,0.92c0.14,0.51,0.9,0.92,1.69,0.92h32.02
							c0.79,0,1.36-0.41,1.27-0.92C201.81,152.52,201.09,152.1,200.29,152.1z"/>
						<path class="st2" d="M201.33,157.78h-18.91c-0.78,0-1.32,0.4-1.2,0.89c0.12,0.49,0.85,0.89,1.63,0.89h18.81
							c0.78,0,1.34-0.4,1.25-0.89C202.82,158.18,202.11,157.78,201.33,157.78z"/>
						<path class="st2" d="M202.34,163.26h-31.12c-0.77,0-1.28,0.39-1.15,0.86c0.14,0.47,0.86,0.86,1.63,0.86h30.95
							c0.76,0,1.32-0.38,1.23-0.86C203.8,163.65,203.11,163.26,202.34,163.26z"/>
						<path class="st2" d="M203.31,168.57h-25.13c-0.76,0-1.27,0.37-1.14,0.83c0.12,0.46,0.83,0.83,1.58,0.83h24.99
							c0.75,0,1.29-0.37,1.21-0.83C204.75,168.94,204.07,168.57,203.31,168.57z"/>
						<path class="st2" d="M204.25,173.7h-24.72c-0.74,0-1.25,0.36-1.13,0.81c0.12,0.44,0.81,0.8,1.55,0.8h24.59
							c0.74,0,1.27-0.36,1.19-0.8C205.66,174.06,205,173.7,204.25,173.7z"/>
						<path class="st2" d="M205.16,178.66H178.2c-0.73,0-1.23,0.35-1.11,0.78c0.12,0.43,0.8,0.78,1.53,0.78h26.83
							c0.73,0,1.26-0.35,1.18-0.78C206.55,179.01,205.9,178.66,205.16,178.66z"/>
						<path class="st10" d="M206.05,183.47h-17.42c-0.72,0-1.22,0.34-1.12,0.76c0.1,0.42,0.77,0.75,1.48,0.75h17.33
							c0.72,0,1.24-0.34,1.16-0.75C207.41,183.81,206.77,183.47,206.05,183.47z"/>
						<path class="st10" d="M196.94,133.81h-24.87c-0.84,0-1.4,0.46-1.25,1.03c0.15,0.57,0.94,1.02,1.78,1.02h24.72
							c0.83,0,1.43-0.46,1.33-1.02C198.54,134.27,197.78,133.81,196.94,133.81z"/>
						<path class="st2" d="M195.73,127.26h-34.62c-0.85,0-1.41,0.48-1.24,1.07c0.17,0.59,0.99,1.06,1.84,1.06h34.42
							c0.85,0,1.45-0.47,1.35-1.06C197.37,127.74,196.59,127.26,195.73,127.26z"/>
						<path class="st2" d="M206.9,188.13h-28.69c-0.71,0-1.19,0.33-1.07,0.73c0.12,0.4,0.78,0.73,1.48,0.73h28.55
							c0.7,0,1.22-0.33,1.15-0.73C208.24,188.46,207.61,188.13,206.9,188.13z"/>
						<polygon class="st10" points="209.82,142.35 216.29,142.35 215.97,139.88 209.45,139.88 						"/>
						<polygon class="st10" points="210.72,148.37 217.08,148.37 216.77,145.98 210.36,145.98 						"/>
						<polygon class="st10" points="211.59,154.17 217.84,154.17 217.54,151.87 211.25,151.87 						"/>
						<polygon class="st10" points="212.43,159.78 218.58,159.78 218.28,157.56 212.1,157.56 						"/>
						<polygon class="st10" points="213.25,165.2 219.29,165.2 219,163.05 212.93,163.05 						"/>
						<polygon class="st10" points="214.04,170.44 219.97,170.44 219.7,168.36 213.72,168.36 						"/>
						<polygon class="st10" points="214.8,175.51 220.64,175.51 220.38,173.5 214.49,173.5 						"/>
						<polygon class="st10" points="215.53,180.41 221.28,180.41 221.03,178.47 215.24,178.47 						"/>
						<polygon class="st10" points="216.25,185.17 221.91,185.17 221.66,183.28 215.96,183.28 						"/>
						<polygon class="st10" points="208.88,136.12 215.47,136.12 215.14,133.55 208.5,133.55 						"/>
						<polygon class="st10" points="207.91,129.65 214.62,129.65 214.27,126.99 207.51,126.99 						"/>
						<polygon class="st10" points="216.94,189.77 222.51,189.77 222.27,187.95 216.66,187.95 						"/>
						<path class="st2" d="M251.05,179.44c-0.01-0.43,0.57-0.78,1.3-0.78h95.82c0.73,0,1.22,0.35,1.1,0.78
							c-0.13,0.43-0.82,0.78-1.54,0.78h-95.33C251.66,180.22,251.06,179.87,251.05,179.44z"/>
						<path class="st2" d="M349.13,175.31h-53.05c-0.74,0-1.3-0.36-1.25-0.8c0.05-0.44,0.69-0.81,1.43-0.81h53.33
							c0.74,0,1.24,0.36,1.11,0.81C350.57,174.95,349.87,175.31,349.13,175.31z"/>
						<path class="st10" d="M283.48,175.31h-16.5c-0.74,0-1.33-0.36-1.33-0.8c0.01-0.44,0.61-0.81,1.36-0.81h16.59
							c0.74,0,1.32,0.36,1.28,0.81C284.85,174.95,284.22,175.31,283.48,175.31z"/>
						<path class="st2" d="M317.92,170.23h-74.84c-0.75,0-1.38-0.37-1.41-0.83c-0.03-0.46,0.56-0.83,1.32-0.83h75.24
							c0.76,0,1.3,0.37,1.21,0.83C319.35,169.86,318.68,170.23,317.92,170.23z"/>
						<path class="st10" d="M227.43,168.57h5.33c0.76,0,1.4,0.37,1.44,0.83c0.04,0.46-0.54,0.83-1.29,0.83h-5.31
							c-0.75,0-1.4-0.37-1.45-0.83C226.11,168.94,226.68,168.57,227.43,168.57z"/>
						<path class="st2" d="M328.75,164.13c-0.1,0.47-0.8,0.86-1.57,0.86h-70.53c-0.76,0-1.39-0.38-1.4-0.86
							c-0.01-0.48,0.61-0.86,1.38-0.86h70.91C328.31,163.26,328.85,163.65,328.75,164.13z"/>
						<path class="st2" d="M226.87,163.26h20.02c0.77,0,1.41,0.39,1.43,0.86c0.02,0.47-0.59,0.86-1.35,0.86h-19.91
							c-0.76,0-1.43-0.38-1.48-0.86C225.52,163.65,226.1,163.26,226.87,163.26z"/>
						<path class="st2" d="M226.28,157.78h76.93c0.78,0,1.36,0.4,1.3,0.89c-0.07,0.49-0.75,0.89-1.53,0.89h-76.51
							c-0.78,0-1.45-0.4-1.51-0.89C224.91,158.18,225.5,157.78,226.28,157.78z"/>
						<path class="st2" d="M276.23,153.94c-0.79,0-1.41-0.41-1.39-0.92c0.02-0.51,0.68-0.92,1.48-0.92h40.59
							c0.79,0,1.37,0.41,1.28,0.92c-0.09,0.51-0.8,0.92-1.59,0.92H276.23z"/>
						<path class="st2" d="M225.68,152.1h35.13c0.79,0,1.44,0.41,1.44,0.92c0,0.51-0.64,0.92-1.44,0.92h-34.94
							c-0.79,0-1.48-0.41-1.53-0.92C224.28,152.52,224.88,152.1,225.68,152.1z"/>
						<path class="st2" d="M356.93,148.13h-96.7c-0.8,0-1.46-0.43-1.46-0.95c0-0.53,0.65-0.96,1.46-0.96h97.25
							c0.81,0,1.34,0.43,1.19,0.96C358.51,147.7,357.73,148.13,356.93,148.13z"/>
						<path class="st2" d="M358.65,142.11h-85.09c-0.82,0-1.47-0.44-1.45-0.99c0.02-0.55,0.7-0.99,1.52-0.99h85.59
							c0.82,0,1.36,0.44,1.2,0.99C360.27,141.67,359.47,142.11,358.65,142.11z"/>
						<path class="st10" d="M360.45,135.86h-17.82c-0.83,0-1.4-0.46-1.27-1.02c0.13-0.57,0.92-1.03,1.76-1.03h17.92
							c0.84,0,1.39,0.46,1.22,1.03C362.09,135.41,361.28,135.86,360.45,135.86z"/>
						<path class="st2" d="M330.16,135.86h-65.43c-0.83,0-1.51-0.46-1.5-1.02c0-0.57,0.69-1.03,1.53-1.03h65.82
							c0.84,0,1.43,0.46,1.31,1.03C331.76,135.41,330.99,135.86,330.16,135.86z"/>
						<path class="st2" d="M229.02,183.47h60.42c0.72,0,1.27,0.34,1.23,0.76c-0.04,0.42-0.66,0.75-1.37,0.75h-60.12
							c-0.72,0-1.33-0.34-1.38-0.75C227.76,183.81,228.3,183.47,229.02,183.47z"/>
						<path class="st2" d="M229.52,188.13h92.83c0.71,0,1.21,0.33,1.13,0.73c-0.09,0.4-0.73,0.73-1.43,0.73h-92.37
							c-0.7,0-1.31-0.33-1.36-0.73C228.27,188.46,228.81,188.13,229.52,188.13z"/>
						<path class="st2" d="M326.91,129.39h-47.26c-0.85,0-1.52-0.47-1.49-1.06c0.03-0.59,0.74-1.07,1.6-1.07h47.55
							c0.85,0,1.46,0.48,1.34,1.07C328.54,128.91,327.76,129.39,326.91,129.39z"/>
						<path class="st10" d="M266.25,129.39h-42.99c-0.85,0-1.59-0.47-1.66-1.06c-0.07-0.59,0.57-1.07,1.43-1.07h43.25
							c0.85,0,1.54,0.48,1.53,1.07C267.79,128.91,267.1,129.39,266.25,129.39z"/>
						<path class="st10" d="M302.85,183.47c0.72,0,1.25,0.34,1.19,0.76c-0.06,0.42-0.69,0.75-1.41,0.75h-4.67
							c-0.72,0-1.26-0.34-1.21-0.75c0.05-0.42,0.67-0.76,1.39-0.76H302.85z"/>
						<path class="st10" d="M245.54,179.44c0.02,0.43-0.55,0.78-1.28,0.78h-6.36c-0.73,0-1.35-0.35-1.38-0.78
							c-0.03-0.43,0.53-0.78,1.26-0.78h6.4C244.9,178.66,245.52,179.01,245.54,179.44z"/>
						<path class="st10" d="M322.29,158.67c-0.09,0.49-0.8,0.89-1.58,0.89h-7.44c-0.78,0-1.34-0.4-1.27-0.89
							c0.08-0.49,0.77-0.89,1.56-0.89h7.48C321.83,157.78,322.39,158.18,322.29,158.67z"/>
						<path class="st10" d="M345.5,163.26c0.77,0,1.29,0.39,1.16,0.86c-0.13,0.47-0.85,0.86-1.61,0.86h-5.93
							c-0.76,0-1.29-0.38-1.18-0.86c0.11-0.48,0.83-0.86,1.6-0.86H345.5z"/>
						<path class="st10" d="M248.51,148.13c-0.8,0-1.47-0.43-1.5-0.95c-0.02-0.53,0.62-0.96,1.43-0.96h6.31
							c0.81,0,1.47,0.43,1.48,0.96c0.01,0.53-0.64,0.95-1.44,0.95H248.51z"/>
					</g>
				</g>
				<g>
					<path class="st2" d="M162.57,117.34c0.49,1.64-0.46,2.95-2.1,2.95c-1.65,0-3.41-1.31-3.94-2.95c-0.54-1.66,0.39-3.02,2.08-3.02
						C160.3,114.32,162.08,115.68,162.57,117.34z"/>
					<path class="st2" d="M170.71,117.39c0.44,1.64-0.55,2.95-2.2,2.95s-3.37-1.31-3.84-2.95c-0.48-1.66,0.49-3.02,2.18-3.02
						C168.54,114.37,170.27,115.73,170.71,117.39z"/>
					<path class="st2" d="M178.94,117.34c0.38,1.64-0.65,2.95-2.3,2.95c-1.65,0-3.32-1.31-3.75-2.95c-0.43-1.66,0.59-3.02,2.28-3.02
						C176.87,114.32,178.56,115.68,178.94,117.34z"/>
				</g>
			</g>
			<g>
				<polygon class="st23" points="100.38,106.44 127.33,178.47 159.84,106.44 				"/>
				<polygon class="st23" points="145.85,198.93 199.78,106.44 256.23,106.44 176.86,198.93 				"/>
				<polygon class="st23" points="280.56,105.99 196.5,198.93 209.45,198.93 296.52,106.44 				"/>
				<polygon class="st23" points="297.16,198.93 389.54,106.44 402.58,106.44 307.33,198.93 				"/>
			</g>
		</g>
	</g>
</g>
<g id="Code_1_">
	<g>
		<g>
			<g>
				<g>
					<path class="st19" d="M171.9,239.07h-21.1c-2.74,0-4.96,2.22-4.96,4.96v10.26c0,2.74,2.22,4.96,4.96,4.96h5.51l4.18,9.47
						l5.89-9.47h5.51c2.74,0,4.96-2.22,4.96-4.96v-10.26C176.86,241.29,174.64,239.07,171.9,239.07z"/>
				</g>
			</g>
			<g>
				<path class="st8" d="M158.42,244.94c0-0.54,0.44-0.96,1.03-0.96c0.59,0,1.03,0.4,1.03,0.92c0,0.57-0.42,1-1.03,1
					C158.86,245.9,158.42,245.48,158.42,244.94z M158.64,247.03h1.61v6.86h-1.61V247.03z"/>
				<path class="st8" d="M164.12,246.67v0.41h1.89v1.29h-1.84v5.52h-1.61v-5.52h-1.13v-1.29h1.13v-0.44c0-1.44,0.86-2.38,2.45-2.38
					c0.55,0,1.09,0.12,1.45,0.37l-0.45,1.21c-0.24-0.17-0.55-0.28-0.89-0.28C164.47,245.57,164.12,245.94,164.12,246.67z"/>
			</g>
		</g>
		<g>
			<g>
				<g>
					<path class="st19" d="M236.12,240.5h-21.1c-2.74,0-4.96,2.22-4.96,4.96v10.26c0,2.74,2.22,4.96,4.96,4.96h5.51l4.18,9.47
						l5.89-9.47h5.51c2.74,0,4.96-2.22,4.96-4.96v-10.26C241.08,242.72,238.86,240.5,236.12,240.5z"/>
				</g>
			</g>
			<g>
				<path class="st8" d="M219.46,252.41h-5.38c0.19,1,1.03,1.64,2.22,1.64c0.77,0,1.37-0.24,1.86-0.75l0.86,0.99
					c-0.62,0.73-1.58,1.12-2.76,1.12c-2.3,0-3.79-1.48-3.79-3.52c0-2.04,1.5-3.51,3.55-3.51c2,0,3.47,1.4,3.47,3.55
					C219.48,252.07,219.47,252.26,219.46,252.41z M214.06,251.35h3.89c-0.13-0.99-0.89-1.67-1.94-1.67
					C214.97,249.68,214.21,250.35,214.06,251.35z"/>
				<path class="st8" d="M221.02,245.8h1.61v9.53h-1.61V245.8z"/>
				<path class="st8" d="M223.95,254.65l0.62-1.22c0.6,0.4,1.53,0.68,2.39,0.68c1.01,0,1.44-0.28,1.44-0.76
					c0-1.31-4.24-0.08-4.24-2.81c0-1.3,1.17-2.15,3.02-2.15c0.91,0,1.95,0.22,2.57,0.59l-0.62,1.22c-0.65-0.39-1.31-0.51-1.97-0.51
					c-0.98,0-1.44,0.32-1.44,0.77c0,1.39,4.24,0.15,4.24,2.84c0,1.29-1.18,2.12-3.11,2.12
					C225.71,255.42,224.56,255.09,223.95,254.65z"/>
				<path class="st8" d="M237.77,252.41h-5.38c0.19,1,1.03,1.64,2.22,1.64c0.77,0,1.37-0.24,1.86-0.75l0.86,0.99
					c-0.62,0.73-1.58,1.12-2.76,1.12c-2.3,0-3.79-1.48-3.79-3.52c0-2.04,1.5-3.51,3.55-3.51c2,0,3.47,1.4,3.47,3.55
					C237.79,252.07,237.78,252.26,237.77,252.41z M232.37,251.35h3.89c-0.13-0.99-0.89-1.67-1.94-1.67
					C233.28,249.68,232.52,250.35,232.37,251.35z"/>
			</g>
		</g>
		<g>
			<g>
				<g>
					<path class="st19" d="M298.38,239.9h-21.1c-2.74,0-4.96,2.22-4.96,4.96v10.26c0,2.74,2.22,4.96,4.96,4.96h5.51l4.18,9.47
						l5.89-9.47h5.51c2.74,0,4.96-2.22,4.96-4.96v-10.26C303.34,242.12,301.12,239.9,298.38,239.9z"/>
				</g>
			</g>
			<g>
				<path class="st8" d="M282.12,247.5v0.41h1.89v1.29h-1.84v5.52h-1.61v-5.52h-1.13v-1.29h1.13v-0.44c0-1.44,0.86-2.38,2.45-2.38
					c0.55,0,1.09,0.12,1.45,0.37l-0.45,1.21c-0.24-0.17-0.55-0.28-0.89-0.28C282.47,246.4,282.12,246.77,282.12,247.5z"/>
				<path class="st8" d="M284.42,251.29c0-2.06,1.54-3.51,3.65-3.51c2.13,0,3.66,1.45,3.66,3.51c0,2.06-1.53,3.52-3.66,3.52
					C285.96,254.81,284.42,253.35,284.42,251.29z M290.11,251.29c0-1.31-0.87-2.15-2.04-2.15c-1.16,0-2.03,0.84-2.03,2.15
					c0,1.31,0.87,2.15,2.03,2.15C289.24,253.44,290.11,252.6,290.11,251.29z"/>
				<path class="st8" d="M297.23,247.78v1.53c-0.14-0.03-0.26-0.04-0.37-0.04c-1.22,0-1.99,0.72-1.99,2.12v3.33h-1.61v-6.86h1.53v1
					C295.26,248.14,296.09,247.78,297.23,247.78z"/>
			</g>
		</g>
		<g>
			<g>
				<g>
					<path class="st19" d="M359.74,239.07h-21.1c-2.74,0-4.96,2.22-4.96,4.96v10.26c0,2.74,2.22,4.96,4.96,4.96h5.51l4.18,9.47
						l5.89-9.47h5.51c2.74,0,4.96-2.22,4.96-4.96v-10.26C364.7,241.29,362.48,239.07,359.74,239.07z"/>
				</g>
			</g>
			<g>
				<path class="st8" d="M346.45,246.69h5.92v1.28h-5.92V246.69z M346.45,249.8h5.92v1.28h-5.92V249.8z"/>
			</g>
		</g>
		<g>
			<g>
				<g>
					<path class="st19" d="M204.06,227.19h-21.1c-2.74,0-4.96,2.22-4.96,4.96v10.26c0,2.74,2.22,4.96,4.96,4.96h5.51l4.18,9.47
						l5.89-9.47h5.51c2.74,0,4.96-2.22,4.96-4.96v-10.26C209.02,229.41,206.8,227.19,204.06,227.19z"/>
				</g>
			</g>
			<g>
				<path class="st8" d="M188.55,231.45h3.07v1.28h-1.46v9.46h1.46v1.29h-3.07V231.45z"/>
				<path class="st8" d="M195.6,243.48v-1.29h1.45v-9.46h-1.45v-1.28h3.06v12.03H195.6z"/>
			</g>
		</g>
		<g>
			<g>
				<g>
					<path class="st19" d="M266.78,226.14h-21.1c-2.74,0-4.96,2.22-4.96,4.96v10.26c0,2.74,2.22,4.96,4.96,4.96h5.51l4.18,9.47
						l5.89-9.47h5.51c2.74,0,4.96-2.22,4.96-4.96V231.1C271.74,228.36,269.52,226.14,266.78,226.14z"/>
				</g>
			</g>
			<g>
				<path class="st8" d="M251.94,236.38c0.51,0.17,0.76,0.51,0.76,1.31v2.44c0,0.62,0.31,0.98,0.95,0.98h0.27v1.29h-0.64
					c-1.45,0-2.18-0.73-2.18-2.09v-2.65c0-0.42-0.22-0.62-0.58-0.62h-0.42v-1.31h0.42c0.36,0,0.58-0.19,0.58-0.62v-2.65
					c0-1.36,0.73-2.09,2.18-2.09h0.64v1.28h-0.27c-0.64,0-0.95,0.36-0.95,0.98v2.44C252.7,235.86,252.45,236.21,251.94,236.38z"/>
				<path class="st8" d="M261.74,235.72v1.31h-0.44c-0.35,0-0.57,0.19-0.57,0.62v2.65c0,1.36-0.75,2.09-2.2,2.09h-0.64v-1.29h0.27
					c0.66,0,0.96-0.36,0.96-0.98v-2.44c0-0.8,0.23-1.14,0.75-1.31c-0.51-0.17-0.75-0.51-0.75-1.31v-2.44c0-0.62-0.31-0.98-0.96-0.98
					h-0.27v-1.28h0.64c1.45,0,2.2,0.73,2.2,2.09v2.65c0,0.42,0.22,0.62,0.57,0.62H261.74z"/>
			</g>
		</g>
		<g>
			<g>
				<g>
					<path class="st19" d="M328.84,224.06h-21.1c-2.74,0-4.96,2.22-4.96,4.96v10.26c0,2.74,2.22,4.96,4.96,4.96h5.51l4.18,9.47
						l5.89-9.47h5.51c2.74,0,4.96-2.22,4.96-4.96v-10.26C333.79,226.28,331.57,224.06,328.84,224.06z"/>
				</g>
			</g>
			<g>
				<path class="st8" d="M317.45,231.66c0-0.64,0.48-1.07,1.05-1.07c0.58,0,1.05,0.42,1.05,1.07c0,0.62-0.48,1.07-1.05,1.07
					C317.92,232.72,317.45,232.27,317.45,231.66z M319.56,236.55c0,0.28-0.06,0.51-0.3,1.11l-0.66,1.81h-1.04l0.51-1.97
					c-0.36-0.15-0.6-0.49-0.6-0.95c0-0.64,0.45-1.07,1.04-1.07C319.12,235.48,319.56,235.92,319.56,236.55z"/>
			</g>
		</g>
		<g>
			<g>
				<g>
					<path class="st19" d="M246.36,403.5h21.1c2.74,0,4.96-2.22,4.96-4.96v-10.26c0-2.74-2.22-4.96-4.96-4.96h-5.51l-1.61-9.47
						l-8.46,9.47h-5.51c-2.74,0-4.96,2.22-4.96,4.96v10.26C241.4,401.28,243.62,403.5,246.36,403.5z"/>
				</g>
			</g>
			<g>
				<path class="st8" d="M253.77,391.3l-4.43,1.66l4.43,1.66v1.34l-5.92-2.3v-1.39l5.92-2.3V391.3z"/>
				<path class="st8" d="M258.45,386.63h1.44l-4.24,12.1h-1.44L258.45,386.63z"/>
				<path class="st8" d="M266.11,392.26v1.39l-5.92,2.3v-1.34l4.43-1.66l-4.43-1.66v-1.34L266.11,392.26z"/>
			</g>
		</g>
		<g>
			<g>
				<g>
					<g>
						<path class="st19" d="M112.24,328.75h21.1c2.74,0,4.96-2.22,4.96-4.96v-10.26c0-2.74-2.22-4.96-4.96-4.96h-5.51l1.2-9.47
							l-11.27,9.47h-5.51c-2.74,0-4.96,2.22-4.96,4.96v10.26C107.28,326.53,109.5,328.75,112.24,328.75z"/>
					</g>
				</g>
			</g>
			<g>
				<path class="st8" d="M118.49,322.25c0-0.55,0.44-0.99,1.04-0.99c0.59,0,1.01,0.44,1.01,0.99c0,0.55-0.42,1-1.01,1
					C118.93,323.25,118.49,322.8,118.49,322.25z M118.58,314.16h1.9l-0.32,6.01h-1.27L118.58,314.16z"/>
				<path class="st8" d="M122.14,316.46h5.92v1.28h-5.92V316.46z M122.14,319.57h5.92v1.29h-5.92V319.57z"/>
			</g>
		</g>
	</g>
</g>
<g id="Mouse">
	<g>
		<g>
			<g>
				<g>
					<defs>
						<path id="XMLID_4_" d="M450.03,317.12c0,4.12-0.34,8.11-0.97,11.87c-2.9,17.3-12,29.93-22.76,29.93
							c-0.96,0-1.93-0.11-2.86-0.3c-11.75-2.49-20.87-20.12-20.87-41.5c0-23.08,10.63-31.25,23.72-31.25
							C439.41,285.87,450.03,294.04,450.03,317.12z"/>
					</defs>
					<use xlink:href="#XMLID_4_"  style="overflow:visible;fill:#FFFFFF;"/>
					<clipPath id="XMLID_8_">
						<use xlink:href="#XMLID_4_"  style="overflow:visible;"/>
					</clipPath>
					<g class="st24">
						<path class="st0" d="M441.43,317.38c0.88,12.38-1.25,24.82-4.81,36.71c8.94-7.34,13.05-18.87,16.77-29.82
							c2.7-7.95,5.43-16.15,4.95-24.53c-0.49-8.38-4.98-17.1-12.85-20.04c-3.84-1.44-8.32-1.33-12.12,0.2
							c-6.59,2.64-2.98,4.79-0.22,9.53C438.1,297.88,440.74,307.63,441.43,317.38z"/>
						<path class="st10" d="M441.43,317.38c0.88,12.38-1.25,24.82-4.81,36.71c8.94-7.34,13.05-18.87,16.77-29.82
							c2.7-7.95,5.43-16.15,4.95-24.53c-0.49-8.38-4.98-17.1-12.85-20.04c-3.84-1.44-8.32-1.33-12.12,0.2
							c-6.59,2.64-2.98,4.79-0.22,9.53C438.1,297.88,440.74,307.63,441.43,317.38z"/>
					</g>
					<use xlink:href="#XMLID_4_"  style="overflow:visible;fill:none;stroke:#263238;stroke-miterlimit:10;"/>
				</g>
				<g>
					<path class="st5" d="M439.05,338.35c-1.59,5.33-4.21,10.34-7.78,14.6"/>
					<path class="st13" d="M439.8,335.45c-0.13,0.56-0.26,1.13-0.41,1.69"/>
					<path class="st5" d="M439.74,317.06c1.26,5.32,1.39,10.89,0.47,16.28"/>
				</g>
				<path class="st13" d="M402.57,317.12c0,0,26.97-10.66,47.45,0"/>
				<path class="st5" d="M426.3,285.87c0,0,2.7,10,3.01,26.26"/>
				<path class="st22" d="M430.07,298.04c0.35,3.11-0.19,5.76-1.2,5.92c-1.01,0.16-2.11-2.23-2.46-5.34
					c-0.35-3.11,0.19-5.76,1.2-5.92C428.62,292.54,429.72,294.93,430.07,298.04z"/>
			</g>
		</g>
		<path class="st13" d="M415.66,366.91h-31.62c-3.94,0-7.18-2.92-7.69-6.71c-0.07-0.34-0.09-0.7-0.09-1.07v-74.59
			c0-0.36,0.02-0.72,0.09-1.08c0.51-3.79,3.75-6.7,7.69-6.7h89.72c1.36,0,2.63,0.35,3.73,0.96"/>
	</g>
</g>
</svg>
